<svg width="128" height="180" viewBox="0 0 128 180" fill="none" xmlns="http://www.w3.org/2000/svg">
<g clip-path="url(#clip0_49_1354)">
<path d="M42.4229 76.3054C50.413 74.6196 58.6197 74.2101 66.7379 75.0919C70.5182 75.4938 74.2526 76.249 77.892 77.3476C81.42 78.4641 84.8322 79.9175 88.0816 81.6879C93.769 84.6636 99.0065 88.4294 103.638 92.8732C105.91 93.2621 108.196 93.6199 110.499 93.791C112.568 93.9621 117.375 92.1264 117.453 90.8819C118.168 77.8455 115.461 0.233398 108.554 0.233398C105.692 0.233398 54.5259 29.5421 26.9751 71.4361C25.1699 75.0473 24.1669 79.0062 24.0349 83.0414C29.773 79.8455 35.9782 77.5724 42.4229 76.3054Z" fill="#009C58"/>
<path d="M110.701 94.0865H110.405C108.119 93.8999 105.847 93.5421 103.529 93.1531C103.479 93.1678 103.425 93.1678 103.374 93.1531C98.7445 88.715 93.5063 84.9592 87.8173 81.999C84.5803 80.2407 81.1842 78.7927 77.6743 77.6743C74.049 76.5862 70.3306 75.8363 66.5669 75.4341C58.4746 74.5511 50.2933 74.9607 42.3297 76.6475C35.9154 77.9177 29.7415 80.191 24.035 83.3836C23.9947 83.4139 23.9455 83.4302 23.895 83.4302C23.8446 83.4302 23.7954 83.4139 23.755 83.3836C23.7074 83.3634 23.6678 83.3281 23.6425 83.283C23.6172 83.238 23.6075 83.1858 23.615 83.1347C23.7503 79.0137 24.8025 74.9747 26.6952 71.3116C54.5727 29.0131 105.645 0 108.539 0C108.758 0.010425 108.972 0.0670995 109.168 0.166302C109.364 0.265503 109.536 0.404988 109.674 0.575595C116.068 7.34273 118.308 79.9144 117.717 90.8974C117.688 91.0835 117.622 91.2618 117.523 91.4221C117.425 91.5824 117.295 91.7213 117.142 91.8308C115.244 93.163 113.015 93.9437 110.701 94.0865ZM103.701 92.6087C105.987 92.982 108.212 93.3398 110.452 93.5109C112.684 93.403 114.84 92.6699 116.675 91.3952C117.002 91.0997 117.048 90.9285 117.048 90.8663C117.795 77.472 115.228 7.37385 109.161 0.964511C109.075 0.853614 108.967 0.761773 108.844 0.69482C108.721 0.627867 108.585 0.587265 108.445 0.575595C107.139 0.575595 94.0399 7.54497 77.0987 20.3792C62.3199 31.58 41.6296 49.5634 27.1308 71.7161C25.4264 75.1079 24.4413 78.8153 24.2373 82.6057C29.8771 79.5102 35.9576 77.2962 42.2674 76.0408C50.2871 74.3408 58.5259 73.926 66.6758 74.8119C70.4713 75.2227 74.2208 75.983 77.8766 77.0831C81.4263 78.2075 84.8595 79.6714 88.1284 81.4545C93.8408 84.4151 99.1046 88.1705 103.763 92.6087H103.701Z" fill="#006F3C"/>
<g style="mix-blend-mode:color-dodge">
<path d="M57.2953 46.1564C60.4066 42.2206 63.7513 38.487 67.2516 34.8779C68.9939 33.0889 70.7673 31.331 72.4941 29.5264C74.2209 27.7218 75.8544 26.0573 77.5812 24.3616C79.3079 22.6659 81.0969 21.048 82.9793 19.5079C84.8616 17.9678 86.8218 16.5677 88.7975 15.1832C92.5622 12.5541 96.4202 10.0806 100.092 7.31152L101.756 5.75586C98.0537 9.13165 92.8111 11.9785 88.5797 14.8565C86.5055 16.3188 84.4313 17.7863 82.357 19.259C79.6502 21.2192 76.9744 23.2156 74.3298 25.2483C65.1041 32.2102 56.6919 40.1892 49.2525 49.0344C46.4834 52.3947 43.8699 55.8638 41.3809 59.4418C42.9365 58.804 44.4922 58.1973 46.0479 57.6684C47.6035 57.1394 49.3614 56.6416 51.0415 56.2371C52.9483 52.7698 55.0358 49.4049 57.2953 46.1564Z" fill="#009C58"/>
</g>
<g style="mix-blend-mode:multiply" opacity="0.6">
<path d="M109.565 0.871216C108.539 4.29368 107.419 7.70058 106.252 11.0919C105.396 13.6121 104.51 16.1167 103.638 18.6213C102.767 21.126 101.803 23.5839 101.04 26.1196C99.4847 31.1911 97.6802 36.1848 96.0778 41.2562C94.8178 45.2232 93.8532 49.4701 91.582 53.0326C90.5277 54.7677 89.015 56.1781 87.2105 57.1085C85.296 57.9855 83.2008 58.3961 81.0968 58.3063C78.9616 58.2251 76.8323 58.0277 74.7186 57.7152C72.1361 57.4303 69.5377 57.3159 66.9402 57.3729C61.4976 57.4744 56.0825 58.1734 50.7925 59.4575C46.1091 60.5492 41.5484 62.1129 37.1804 64.1245C35.0314 65.1413 32.9526 66.3002 30.9578 67.5936C30.1333 68.1226 29.4021 68.6826 28.562 69.2737C28.0538 70.0205 27.5353 70.7827 27.0064 71.5606C25.2011 75.1718 24.1982 79.1307 24.0662 83.1658C29.8014 79.9537 36.0068 77.6648 42.4541 76.3831C50.4442 74.6974 58.6509 74.2878 66.7691 75.1697C70.5495 75.5716 74.2838 76.3268 77.9232 77.4254C81.4512 78.5418 84.8635 79.9953 88.1128 81.7657C93.8002 84.7414 99.0377 88.5071 103.669 92.9509C105.941 93.3399 108.228 93.6977 110.53 93.8688C112.599 94.0399 117.406 92.2042 117.484 90.9597C118.122 78.4988 115.726 8.01171 109.565 0.871216Z" fill="#009C58"/>
</g>
<g style="mix-blend-mode:multiply" opacity="0.6">
<path d="M109.565 0.871216C109.363 1.52459 110.499 45.861 110.39 52.317C110.39 54.6505 110.39 56.984 110.39 59.3175C110.474 61.5111 110.168 63.7021 109.487 65.7891C109.195 66.783 108.601 67.6614 107.787 68.3025C106.973 68.9436 105.98 69.3156 104.945 69.3671C102.518 69.3671 100.433 67.8114 98.3488 66.8469C93.016 64.2944 87.3492 62.5085 81.5165 61.5421C75.2456 60.3343 68.8562 59.8541 62.4752 60.1109C56.1595 60.3691 49.9118 61.516 43.9162 63.5178C38.9637 65.2735 34.1486 67.3951 29.5107 69.8649C28.7173 70.2694 27.955 70.6894 27.1772 71.1405L26.9439 71.4828C25.1386 75.094 24.1357 79.0529 24.0037 83.088C29.7389 79.876 35.9442 77.587 42.3916 76.3054C50.3817 74.6196 58.5884 74.2101 66.7066 75.0919C70.487 75.4938 74.2213 76.249 77.8607 77.3476C81.3887 78.4641 84.801 79.9175 88.0503 81.688C93.7377 84.6636 98.9752 88.4294 103.607 92.8732C105.878 93.2621 108.165 93.6199 110.467 93.791C112.536 93.9621 117.343 92.1264 117.421 90.8819C118.121 78.4988 115.726 8.01171 109.565 0.871216Z" fill="#009C58"/>
</g>
<path d="M20.9392 90.1197C22.5582 90.123 24.1558 89.7502 25.6062 89.0307C27.333 88.2529 28.9975 87.3195 30.6621 86.4172C32.4877 85.4343 34.3679 84.5565 36.2936 83.7881C45.9903 79.8394 56.3614 77.8107 66.8313 77.8144C76.5789 77.6746 86.2061 79.9797 94.8332 84.5193C98.5207 86.5535 101.848 89.1815 104.681 92.2976C106.095 93.8729 107.376 95.5641 108.507 97.3535C109.705 99.2514 110.623 101.32 111.977 103.125C114.777 106.859 118.199 105.21 120.097 101.476C124.764 92.282 118.402 82.1702 111.323 76.3676C104.245 70.565 95.0199 66.8625 86.0593 64.5134C68.7362 59.902 50.3681 61.2219 33.8823 68.2626C31.9377 69.1026 30.0398 70.036 28.173 71.0628C23.506 73.583 17.3923 76.3676 16.7078 82.2169C16.3189 85.2038 17.3612 89.9019 20.9392 90.1197Z" fill="#FE0000"/>
<path d="M115.368 105.567C114.615 105.525 113.883 105.3 113.235 104.913C112.588 104.525 112.044 103.987 111.65 103.343C110.873 102.208 110.172 101.023 109.55 99.7959C109.13 99.0336 108.694 98.2403 108.228 97.5091C107.113 95.7524 105.859 94.0878 104.478 92.531C101.663 89.4215 98.3577 86.794 94.6933 84.7527C86.134 80.2309 76.5726 77.9409 66.8936 78.0944C56.4618 78.089 46.128 80.1072 36.4648 84.037C34.5491 84.7993 32.6792 85.672 30.8644 86.6506L29.8221 87.2106C28.5154 87.9262 27.1619 88.6574 25.7774 89.2641C24.2844 90.0074 22.6382 90.391 20.9704 90.3842C20.4036 90.3429 19.8519 90.1831 19.3507 89.9151C18.8496 89.6471 18.4103 89.2769 18.0613 88.8285C16.7257 86.8711 16.1708 84.4849 16.5056 82.1391C17.1435 76.6632 22.5572 73.7697 26.8975 71.4362L28.1109 70.7828C29.9621 69.7716 31.8912 68.8227 33.8513 67.967C50.3902 60.8774 68.8319 59.5515 86.2149 64.2023C96.949 67.0336 105.241 70.9384 111.588 76.1187C119.211 82.3414 124.904 92.6554 120.44 101.569C120.061 102.565 119.433 103.447 118.616 104.131C117.799 104.815 116.82 105.277 115.773 105.474L115.368 105.567ZM66.3024 77.5655H66.8002C76.5868 77.3979 86.2586 79.6928 94.9266 84.2393C100.537 87.3389 105.277 91.8007 108.71 97.2135C109.177 97.9758 109.628 98.7692 110.048 99.5315C110.669 100.727 111.376 101.876 112.163 102.969C112.53 103.574 113.046 104.075 113.662 104.423C114.277 104.772 114.972 104.957 115.679 104.961C116.61 104.745 117.474 104.303 118.193 103.673C118.912 103.044 119.465 102.246 119.802 101.352C124.126 92.7176 118.557 82.6836 111.106 76.601C104.883 71.4517 96.5912 67.5937 85.9349 64.7779C68.6804 60.1708 50.379 61.4854 33.9602 68.5115C32.0156 69.3671 30.1021 70.3005 28.2664 71.3117L27.0375 71.9651C22.5883 74.3453 17.5479 77.0521 16.9568 82.248C16.6927 84.443 17.2466 86.6582 18.5125 88.4707C18.8157 88.8499 19.1955 89.1609 19.6271 89.3834C20.0586 89.6058 20.5323 89.7348 21.0171 89.7619C22.5931 89.7692 24.1489 89.4069 25.5596 88.704C26.9286 88.0973 28.2664 87.3662 29.5577 86.6661L30.5999 86.1061C32.4369 85.1201 34.3274 84.2371 36.2626 83.4615C45.8284 79.6078 56.0364 77.5969 66.3491 77.5344L66.3024 77.5655Z" fill="#B40000"/>
<g style="mix-blend-mode:multiply" opacity="0.61">
<path d="M111.277 76.4609C106.905 72.9807 102.032 70.1801 96.8245 68.1537L97.4313 68.6204C99.3914 70.0671 101.554 71.2494 103.374 72.8673C105.248 74.4401 106.459 76.6625 106.765 79.09C106.765 79.3078 106.516 79.4167 106.345 79.3233C105.536 78.9033 104.79 78.4522 103.965 78.001C97.7424 74.423 91.9242 70.0983 85.1726 67.5625C81.531 66.2559 77.7522 65.3687 73.9096 64.9179C70.0169 64.4048 66.0855 64.2486 62.1644 64.4512C54.615 64.8809 47.1783 66.4816 40.1206 69.196C36.7435 70.484 33.4586 72.0017 30.2888 73.7385C28.7331 74.563 27.3019 75.4653 25.8241 76.3676C25.0307 76.8343 24.2684 77.4254 23.5839 77.9232C22.8994 78.4211 19.7103 80.8323 18.808 79.0122C18.7051 78.6897 18.6782 78.3477 18.7295 78.013C18.7807 77.6784 18.9088 77.3601 19.1036 77.0832C17.7675 78.4934 16.9125 80.2906 16.6612 82.2169C16.319 85.1571 17.3768 89.8552 20.9393 90.073C22.5583 90.0763 24.1559 89.7035 25.6063 88.984C27.3331 88.2062 28.9976 87.2728 30.6622 86.3705C32.4878 85.3876 34.368 84.5099 36.2937 83.7414C45.9904 79.7928 56.3615 77.764 66.8314 77.7677C76.5789 77.6279 86.2062 79.9331 94.8333 84.4726C98.5208 86.5068 101.848 89.1348 104.681 92.2509C106.095 93.8262 107.376 95.5174 108.508 97.3068C109.705 99.2047 110.623 101.274 111.977 103.078C114.777 106.812 118.199 105.163 120.097 101.429C124.702 92.3287 118.355 82.2169 111.277 76.4609Z" fill="#9C0C0E"/>
</g>
<path d="M127.067 112.117C125.604 111.308 123.535 111.79 122.026 112.117C115.582 113.463 109.584 116.417 104.587 120.704C96.0157 128.187 93.9155 140.927 95.6112 151.817C96.109 154.928 97.1668 159.767 101.398 159.191C102.512 158.994 103.573 158.565 104.51 157.931C109.628 154.695 112.801 149.639 115.477 144.35C117.377 140.591 118.939 136.671 120.144 132.636C121.373 128.56 122.244 123.955 124.407 120.19C125.231 118.557 129.369 113.797 127.067 112.117Z" fill="#FED1B4"/>
<g style="mix-blend-mode:screen">
<path d="M96.9023 144.599C97.389 139.103 98.9035 133.746 101.367 128.809C103.04 125.598 105.322 122.745 108.088 120.408L107.87 120.548C103.515 123.662 100.176 127.991 98.2713 132.994C96.3552 137.86 95.7648 143.148 96.5601 148.317C96.7001 147.041 96.7001 145.828 96.9023 144.599Z" fill="#FED1B4"/>
</g>
<path d="M127.238 111.883C125.557 111.288 123.723 111.288 122.042 111.883C115.546 113.235 109.498 116.211 104.463 120.533C99.3224 125.291 96.0508 131.73 95.2378 138.687C95.4957 138.073 95.7918 137.475 96.1245 136.898C97.1421 130.743 100.186 125.103 104.774 120.875C109.727 116.607 115.686 113.673 122.089 112.35C123.184 112.055 124.315 111.919 125.449 111.945C125.942 111.964 126.426 112.092 126.864 112.319C128.42 113.548 126.196 116.784 124.858 118.728C124.573 119.114 124.308 119.513 124.064 119.926C122.531 122.935 121.376 126.123 120.626 129.416C120.346 130.473 120.066 131.469 119.771 132.527C118.559 136.545 116.997 140.449 115.104 144.194C112.677 148.97 109.488 154.322 104.214 157.651C103.368 158.273 102.396 158.703 101.367 158.911C100.789 159.015 100.195 158.972 99.638 158.788C99.081 158.603 98.579 158.282 98.178 157.853C98.5251 158.394 98.9496 158.882 99.4381 159.3C99.7468 159.418 100.072 159.486 100.403 159.502C100.749 159.54 101.099 159.54 101.445 159.502C102.563 159.293 103.624 158.847 104.556 158.195C109.939 154.788 113.19 149.359 115.648 144.505C117.551 140.732 119.113 136.796 120.315 132.745C120.626 131.749 120.906 130.707 121.186 129.633C121.91 126.391 123.044 123.254 124.562 120.299C124.718 120.019 124.998 119.615 125.324 119.148C126.818 116.908 129.26 113.439 127.238 111.883Z" fill="#BA774B"/>
<path d="M122.399 117.702H122.073C115.078 120.076 108.951 124.486 104.478 130.365C102.389 133.304 100.787 136.561 99.7334 140.01C99.2038 143.103 99.2513 146.268 99.8734 149.344C99.7888 146.795 100.05 144.246 100.651 141.768C100.866 141.986 101.127 142.153 101.415 142.258C101.703 142.363 102.011 142.403 102.316 142.374C103.073 142.327 103.811 142.12 104.481 141.766C105.152 141.412 105.739 140.919 106.205 140.321C106.361 140.072 105.987 139.87 105.816 140.088C105.102 140.884 104.112 141.378 103.047 141.472C102.785 141.548 102.51 141.564 102.241 141.521C101.972 141.478 101.716 141.377 101.491 141.223C101.236 140.987 101.076 140.666 101.04 140.321C102.089 136.802 103.702 133.476 105.816 130.474C108.516 126.903 111.874 123.883 115.71 121.575C115.71 122.835 115.71 124.08 115.803 125.34C115.786 127.523 115.478 129.694 114.886 131.796C113.993 135.742 112.775 139.608 111.245 143.354C111.225 143.381 111.214 143.414 111.214 143.448C111.214 143.481 111.225 143.514 111.245 143.541C111.396 143.43 111.537 143.305 111.665 143.168C113.386 139.532 114.771 135.746 115.803 131.858C116.612 128.747 117.624 124.298 116.519 121.062C118.432 119.895 120.393 118.853 122.291 117.95C122.336 117.93 122.373 117.893 122.393 117.847C122.413 117.801 122.415 117.749 122.399 117.702Z" fill="#BA8368"/>
<g style="mix-blend-mode:multiply">
<path d="M127.067 112.117C125.604 111.308 123.535 111.79 122.026 112.117C115.582 113.463 109.583 116.417 104.587 120.704C101.701 123.278 99.4307 126.468 97.9446 130.038C98.1728 129.654 98.4217 129.265 98.6913 128.871C101.148 125.193 104.323 122.05 108.025 119.63C109.777 118.454 111.656 117.478 113.626 116.721C115.508 115.957 117.542 115.637 119.568 115.788C119.622 115.796 119.673 115.818 119.715 115.853C119.757 115.887 119.789 115.933 119.806 115.984C119.824 116.036 119.827 116.091 119.815 116.145C119.803 116.198 119.777 116.247 119.739 116.286C119.367 116.583 118.977 116.859 118.573 117.11C116.877 118.153 114.995 118.868 113.377 120.035C111.568 121.336 109.838 122.744 108.196 124.251C105.05 127.152 102.507 130.647 100.714 134.534C99.1561 137.841 98.278 141.428 98.1313 145.081C98.1313 147.523 98.458 151.708 101.632 151.988C103.193 151.946 104.681 151.319 105.801 150.23C106.999 149.266 108.041 148.161 109.177 147.119C109.218 147.081 109.271 147.057 109.326 147.049C109.382 147.042 109.439 147.051 109.49 147.076C109.54 147.101 109.582 147.141 109.609 147.191C109.636 147.24 109.648 147.296 109.643 147.352C109.284 149.459 108.425 151.449 107.139 153.155C106.136 154.78 104.682 156.077 102.954 156.889C102.234 157.211 101.448 157.357 100.66 157.313C99.8727 157.27 99.107 157.039 98.4269 156.64C97.4297 156.003 96.6148 155.119 96.0623 154.073C96.7312 156.811 98.1157 159.611 101.398 159.175C102.512 158.979 103.573 158.55 104.51 157.915C109.628 154.68 112.801 149.624 115.477 144.334C117.377 140.576 118.939 136.656 120.144 132.62C121.373 128.544 122.244 123.94 124.406 120.175C125.231 118.557 129.369 113.797 127.067 112.117Z" fill="#FED1B4"/>
</g>
<path d="M0.948914 112.117C2.39568 111.308 4.48028 111.79 5.98927 112.117C12.4319 113.467 18.4298 116.421 23.4282 120.704C32 128.187 34.1001 140.927 32.4044 151.817C31.9066 154.928 30.8488 159.767 26.6174 159.191C25.5023 158.998 24.4414 158.568 23.506 157.931C18.3879 154.695 15.2144 149.639 12.5231 144.35C10.6295 140.588 9.06794 136.669 7.85606 132.636C6.62709 128.56 5.74035 123.955 3.59354 120.19C2.78459 118.557 -1.3068 113.797 0.948914 112.117Z" fill="#FED1B4"/>
<g style="mix-blend-mode:screen">
<path d="M31.1134 144.599C30.5974 139.102 29.0678 133.749 26.602 128.809C24.929 125.594 22.6402 122.74 19.866 120.408L20.0993 120.548C24.4535 123.659 27.7882 127.989 29.6822 132.994C31.6107 137.857 32.2016 143.148 31.3934 148.317C31.3623 147.041 31.2534 145.828 31.1134 144.599Z" fill="#FED1B4"/>
</g>
<path d="M0.77778 111.883C2.45253 111.284 4.2834 111.284 5.95814 111.883C12.4683 113.209 18.5339 116.169 23.5838 120.486C28.7205 125.263 31.9812 131.718 32.7778 138.687C32.5136 138.076 32.2176 137.479 31.8911 136.898C30.8735 130.743 27.8293 125.103 23.2416 120.875C18.287 116.61 12.3285 113.676 5.92702 112.35C4.83757 112.054 3.71094 111.918 2.58236 111.946C2.08846 111.962 1.60465 112.09 1.1667 112.319C-0.388968 113.548 1.83564 116.784 3.17352 118.728C3.5002 119.211 3.79577 119.615 3.9669 119.926C5.50017 122.935 6.65497 126.123 7.40492 129.416C7.68494 130.474 7.94939 131.469 8.24497 132.527C9.457 136.545 11.0186 140.449 12.912 144.195C15.3232 148.97 18.5124 154.322 23.8016 157.651C24.6614 158.279 25.6495 158.71 26.6951 158.911C27.2728 159.015 27.8672 158.973 28.4243 158.788C28.9813 158.603 29.4832 158.282 29.8843 157.853C29.5372 158.394 29.1126 158.882 28.6242 159.3C28.315 159.417 27.9896 159.485 27.6596 159.502C27.3133 159.54 26.9637 159.54 26.6174 159.502C25.5006 159.288 24.4409 158.843 23.506 158.195C18.1234 154.789 14.8877 149.359 12.4297 144.506C10.534 140.729 8.97233 136.794 7.76272 132.745C7.46714 131.749 7.18712 130.707 6.9071 129.634C6.17626 126.393 5.04216 123.258 3.53131 120.3C3.37575 120.019 3.09572 119.615 2.76903 119.148C1.18225 116.908 -1.30681 113.439 0.77778 111.883Z" fill="#BA774B"/>
<path d="M5.61577 117.702H5.94247C12.9546 120.068 19.0985 124.478 23.5837 130.365C25.6724 133.304 27.2744 136.561 28.3285 140.01C28.858 143.103 28.8106 146.268 28.1885 149.344C28.2678 146.794 28.0009 144.246 27.3951 141.768C27.1835 141.986 26.9254 142.154 26.6399 142.259C26.3544 142.364 26.0489 142.404 25.7461 142.374C24.9893 142.327 24.2513 142.12 23.5808 141.766C22.9103 141.412 22.3227 140.919 21.8569 140.321C21.6858 140.072 22.0747 139.87 22.2303 140.088C22.9501 140.885 23.945 141.379 25.0149 141.472C25.2766 141.548 25.5516 141.564 25.8205 141.521C26.0894 141.478 26.3455 141.377 26.5706 141.223C26.8258 140.989 26.9817 140.666 27.0061 140.321C25.9558 136.805 24.3486 133.481 22.2458 130.474C19.5266 126.898 16.1468 123.877 12.2896 121.575C12.2896 122.835 12.2896 124.08 12.2118 125.34C12.2313 127.522 12.5346 129.692 13.1141 131.796C14.0124 135.743 15.2352 139.609 16.7699 143.354C16.7699 143.448 16.7699 143.51 16.7699 143.541C16.6243 143.429 16.4889 143.304 16.3654 143.168C14.6444 139.532 13.2593 135.746 12.2273 131.858C11.4028 128.747 10.3917 124.298 11.5118 121.062C9.58273 119.895 7.62259 118.853 5.72468 117.95C5.68101 117.927 5.64645 117.89 5.62667 117.845C5.60688 117.8 5.60303 117.749 5.61577 117.702Z" fill="#BA8368"/>
<g style="mix-blend-mode:multiply">
<path d="M0.948914 112.117C2.39568 111.308 4.48028 111.79 5.98927 112.117C12.4319 113.467 18.4298 116.421 23.4282 120.704C26.3146 123.278 28.5849 126.468 30.0709 130.038C29.822 129.649 29.5887 129.26 29.3242 128.871C26.8636 125.196 23.6894 122.054 19.9902 119.63C18.2384 118.454 16.3598 117.478 14.3898 116.721C12.5073 115.957 10.4736 115.637 8.44722 115.788C8.39331 115.796 8.34257 115.818 8.3006 115.853C8.25862 115.887 8.22703 115.933 8.20933 115.984C8.19162 116.036 8.1885 116.091 8.20028 116.145C8.21206 116.198 8.2383 116.247 8.2761 116.286C8.64851 116.583 9.0381 116.859 9.44285 117.11C11.1385 118.153 13.0209 118.868 14.6388 120.035C16.4476 121.336 18.1775 122.744 19.8191 124.251C22.9614 127.156 25.5035 130.65 27.3019 134.534C28.8594 137.841 29.7375 141.428 29.8843 145.081C29.8843 147.523 29.5576 151.708 26.384 151.988C24.823 151.946 23.3347 151.319 22.2148 150.23C21.017 149.266 19.9747 148.161 18.839 147.119C18.7972 147.081 18.745 147.057 18.6891 147.049C18.6333 147.042 18.5764 147.051 18.526 147.076C18.4755 147.101 18.4339 147.141 18.4065 147.191C18.3791 147.24 18.3672 147.296 18.3723 147.352C18.7254 149.458 19.5791 151.448 20.8614 153.155C21.8733 154.778 23.3316 156.074 25.0617 156.889C25.7815 157.211 26.5679 157.357 27.3554 157.313C28.1429 157.27 28.9086 157.039 29.5887 156.64C30.5859 156.003 31.4007 155.119 31.9533 154.073C31.2688 156.811 29.8998 159.611 26.6174 159.175C25.5023 158.982 24.4414 158.552 23.506 157.915C18.3879 154.68 15.2144 149.624 12.5231 144.334C10.6295 140.573 9.06794 136.653 7.85606 132.62C6.62709 128.544 5.74035 123.94 3.59354 120.175C2.78459 118.557 -1.3068 113.797 0.948914 112.117Z" fill="#FED1B4"/>
</g>
<path d="M101.009 126.802C102.456 120.066 104.12 112.91 103.327 105.832C102.923 101.291 101.428 96.9152 98.9687 93.077C96.5092 89.2388 93.1584 86.052 89.2016 83.788C84.8365 81.5294 80.0883 80.1049 75.2007 79.5877C71.5951 79.0722 67.9463 78.9263 64.311 79.1522C60.6758 78.9271 57.027 79.073 53.4214 79.5877C48.5338 80.1049 43.7856 81.5294 39.4204 83.788C35.4637 86.052 32.1129 89.2388 29.6534 93.077C27.1939 96.9152 25.6986 101.291 25.295 105.832C24.5327 112.91 26.1662 120.066 27.6129 126.802C29.1686 134.098 28.1419 141.036 27.6129 148.426C26.944 158.055 30.1331 164.636 36.6202 169.038C44.803 174.608 54.7282 178.839 64.4044 178.948C74.0806 179.057 84.068 174.468 92.033 169.038C98.5045 164.636 101.694 158.055 101.025 148.426C100.48 141.036 99.4379 134.098 101.009 126.802Z" fill="#FED1B4"/>
<path d="M64.7934 179.244H64.4512C55.7239 179.135 45.7832 175.603 36.4492 169.272C29.651 164.605 26.6797 157.822 27.333 148.41C27.4264 147.119 27.5353 145.828 27.6442 144.568C28.142 138.532 28.6242 132.838 27.333 126.864L27.1775 126.118C25.7463 119.506 24.2684 112.661 25.0151 105.801C25.446 101.22 26.9673 96.8083 29.4518 92.9354C31.9363 89.0626 35.3118 85.8407 39.2961 83.5392C43.6633 81.2773 48.4092 79.8377 53.2971 79.2922C56.9342 78.7782 60.6143 78.6375 64.2801 78.8722C67.9148 78.6415 71.5635 78.7822 75.1697 79.2922C80.0576 79.8377 84.8034 81.2773 89.1707 83.5392C93.155 85.8407 96.5305 89.0626 99.015 92.9354C101.499 96.8083 103.021 101.22 103.452 105.801C104.198 112.661 102.72 119.506 101.289 126.118L101.134 126.864C99.8425 132.838 100.325 138.532 100.823 144.568C100.931 145.828 101.04 147.119 101.134 148.41C101.787 157.744 98.8158 164.651 92.0175 169.272C86.6816 173.021 75.8542 179.244 64.7934 179.244ZM61.1687 79.3233C58.5666 79.3288 55.9679 79.5107 53.3904 79.8678C48.557 80.3884 43.8622 81.8021 39.545 84.037C35.6433 86.2873 32.3366 89.4384 29.901 93.2272C27.4653 97.016 25.9714 101.332 25.544 105.816C24.8129 112.583 26.2752 119.382 27.7064 125.947L27.862 126.693C29.1687 132.745 28.6865 138.485 28.1731 144.568C28.0642 145.828 27.9709 147.104 27.8775 148.395C27.2241 157.604 30.1332 164.263 36.7448 168.758C45.9388 174.981 55.755 178.512 64.3734 178.621H64.7156C75.6053 178.621 86.3394 172.399 91.7686 168.758C98.3802 164.263 101.289 157.604 100.636 148.395C100.543 147.104 100.449 145.828 100.34 144.568C99.827 138.485 99.3447 132.745 100.651 126.693L100.807 125.962C102.238 119.382 103.701 112.583 102.969 105.816C102.542 101.332 101.048 97.016 98.6124 93.2272C96.1768 89.4384 92.8701 86.2873 88.9684 84.037C84.6512 81.8021 79.9565 80.3884 75.123 79.8678C71.5172 79.3548 67.8687 79.2088 64.2334 79.4322C63.3155 79.3544 62.2577 79.3233 61.1687 79.3233Z" fill="#BA774B"/>
<g style="mix-blend-mode:screen">
<path d="M87.7549 142.67C87.3196 142.709 86.891 142.803 86.4793 142.95C85.431 143.473 84.5118 144.222 83.788 145.143C83.0257 146.139 82.4657 147.866 84.0524 148.379C85.6392 148.893 87.1638 147.555 88.0349 146.466C88.5175 145.925 88.9019 145.303 89.1706 144.63C89.3573 144.148 89.6217 143.401 89.1706 142.965C88.9686 142.82 88.7382 142.718 88.4943 142.667C88.2503 142.616 87.9984 142.617 87.7549 142.67Z" fill="#FED1B4"/>
</g>
<g style="mix-blend-mode:screen">
<path d="M60.1729 143.743C59.6461 143.554 59.0971 143.434 58.5395 143.386C58.4995 143.385 58.4603 143.375 58.4251 143.356C58.3899 143.337 58.3597 143.31 58.3372 143.277C58.0216 143.335 57.7137 143.429 57.4194 143.557C57.2344 143.627 57.0673 143.737 56.9301 143.88C56.7929 144.022 56.6891 144.194 56.626 144.381C56.61 144.62 56.6494 144.86 56.7412 145.081C56.8329 145.302 56.9745 145.499 57.155 145.657C57.5767 146.103 58.0938 146.448 58.6676 146.666C59.2413 146.884 59.857 146.97 60.4685 146.917C60.7605 146.887 61.0394 146.781 61.2771 146.609C61.5148 146.437 61.7028 146.205 61.8219 145.937C61.9283 145.717 61.9659 145.47 61.9298 145.229C61.8937 144.987 61.7857 144.762 61.6197 144.583C61.2172 144.184 60.7191 143.895 60.1729 143.743Z" fill="#FED1B4"/>
</g>
<g style="mix-blend-mode:screen">
<path d="M39.2649 143.354C38.6599 142.816 37.9059 142.475 37.1025 142.374C37.0821 142.42 37.0494 142.458 37.0081 142.486C36.9669 142.513 36.9187 142.529 36.8691 142.53C36.3402 142.53 35.5313 142.53 35.3135 143.137C35.2581 143.33 35.2581 143.535 35.3135 143.728C35.382 144 35.4979 144.258 35.6557 144.49C36.3094 145.558 37.3084 146.37 38.487 146.792C38.9936 146.95 39.5362 146.95 40.0427 146.792C40.2125 146.728 40.3627 146.621 40.4783 146.481C40.5794 146.35 40.6439 146.194 40.665 146.03C40.6387 145.51 40.4999 145.001 40.2582 144.539C40.0165 144.077 39.6776 143.673 39.2649 143.354Z" fill="#FED1B4"/>
</g>
<g style="mix-blend-mode:multiply">
<path d="M90.0418 139.761C89.9798 139.761 89.9194 139.741 89.8692 139.705C89.8189 139.668 89.7814 139.617 89.7618 139.558C89.7347 138.453 89.8551 137.349 90.1196 136.276C90.2266 134.982 90.1215 133.679 89.8085 132.418C89.3404 130.19 88.0593 128.215 86.2149 126.88C86.158 126.851 86.1129 126.803 86.0869 126.745C86.0609 126.686 86.0556 126.621 86.0719 126.559C86.0883 126.497 86.1253 126.443 86.1767 126.405C86.2282 126.367 86.2911 126.348 86.3549 126.351C87.8653 126.276 89.3451 126.795 90.4774 127.798C90.0302 126.221 89.0379 124.854 87.6772 123.94C86.1852 122.971 84.4764 122.388 82.7037 122.241C80.931 122.094 79.1496 122.389 77.5187 123.1C76.0584 123.761 74.7708 124.751 73.7561 125.993C72.7415 127.234 72.0274 128.693 71.6694 130.256C72.7659 128.893 74.2125 127.855 75.8542 127.253C75.9143 127.242 75.9765 127.249 76.0322 127.275C76.0878 127.3 76.1342 127.342 76.165 127.395C76.1957 127.448 76.2092 127.509 76.2037 127.57C76.1982 127.631 76.1739 127.689 76.1342 127.735C74.729 128.975 73.7585 130.633 73.3651 132.465C72.9718 135.653 73.484 138.888 74.843 141.799C75.2885 143.108 76.0406 144.292 77.0365 145.252C77.5008 145.696 78.0849 145.993 78.7166 146.108C79.4471 146.181 80.1799 145.994 80.7856 145.579C80.8354 145.554 80.8911 145.544 80.9464 145.55C81.0017 145.555 81.0542 145.576 81.0981 145.611C81.1419 145.645 81.1752 145.69 81.1943 145.743C81.2133 145.795 81.2172 145.851 81.2056 145.906C80.9444 146.796 80.798 147.716 80.7701 148.644C81.8887 146.134 83.6951 143.993 85.9802 142.468C88.2653 140.943 90.9356 140.096 93.6821 140.025C92.5224 139.575 91.2544 139.483 90.0418 139.761Z" fill="#FED1B4"/>
</g>
<g style="mix-blend-mode:multiply">
<path d="M58.1507 148.504C57.25 147.887 56.4959 147.079 55.9417 146.139C55.9417 146.481 55.9416 146.808 56.0505 147.119C56.1765 148.505 56.6825 149.829 57.5129 150.946C58.083 151.608 58.7864 152.143 59.5771 152.516C60.3678 152.889 61.2282 153.09 62.1021 153.108C63.6038 153.043 65.0531 152.538 66.2701 151.655C67.487 150.773 68.4179 149.553 68.947 148.146C67.8316 148.829 66.6415 149.382 65.4001 149.795C64.1729 150.143 62.8826 150.208 61.6267 149.984C60.3708 149.76 59.1822 149.254 58.1507 148.504Z" fill="#FED1B4"/>
</g>
<g style="mix-blend-mode:multiply">
<path d="M101.009 126.802C102.456 120.066 104.12 112.91 103.327 105.832C102.923 101.291 101.428 96.9152 98.9687 93.077C96.5092 89.2388 93.1584 86.052 89.2016 83.788C84.8365 81.5294 80.0883 80.1049 75.2007 79.5877C71.5951 79.0722 67.9463 78.9263 64.311 79.1522C60.6758 78.9271 57.027 79.073 53.4214 79.5877C48.5338 80.1049 43.7856 81.5294 39.4204 83.788C35.4637 86.052 32.1129 89.2388 29.6534 93.077C27.1939 96.9152 25.6986 101.291 25.295 105.832C24.5327 112.91 26.1662 120.066 27.6129 126.802C28.4778 131.348 28.6873 135.995 28.2352 140.601C28.9819 139.045 29.7909 137.614 30.5531 136.121C31.1287 135 31.7043 133.88 32.2333 132.745C32.7622 131.609 33.1978 130.473 33.6956 129.338C35.5624 125.2 37.9736 120.751 37.5536 116.053C37.5512 115.99 37.5698 115.928 37.6064 115.878C37.6431 115.827 37.6957 115.79 37.7559 115.772C40.5092 115.099 43.1576 114.052 45.6275 112.661C45.6941 112.627 45.7713 112.619 45.8435 112.639C45.9157 112.659 45.9775 112.706 46.0164 112.77C47.0802 115.284 48.7345 117.504 50.839 119.242C52.8889 120.756 55.2845 121.734 57.8084 122.088C60.256 122.385 62.7379 122.211 65.12 121.575C69.8423 120.588 74.1262 118.119 77.3475 114.528C77.3736 114.501 77.405 114.479 77.4398 114.464C77.4745 114.449 77.5119 114.442 77.5497 114.442C77.5875 114.442 77.6249 114.449 77.6597 114.464C77.6944 114.479 77.7258 114.501 77.752 114.528C78.4866 115.331 79.3685 115.986 80.3499 116.457C83.6946 118.013 87.7393 117.499 91.2396 116.535C91.2809 116.523 91.3245 116.521 91.3668 116.528C91.4092 116.536 91.4492 116.553 91.4838 116.579C91.5185 116.604 91.5467 116.637 91.5664 116.676C91.5861 116.714 91.5967 116.756 91.5974 116.799C92.0033 119.996 92.6693 123.154 93.5886 126.242C95.1443 131.796 97.26 137.132 98.8157 142.748C99.9807 146.722 100.665 150.822 100.854 154.96C101.152 152.785 101.22 150.584 101.056 148.395C100.48 141.036 99.4379 134.098 101.009 126.802Z" fill="#FED1B4"/>
</g>
<g style="mix-blend-mode:multiply">
<path d="M52.4881 125.184C51.1165 123.988 49.443 123.192 47.65 122.882C46.0593 122.642 44.4356 122.748 42.8897 123.193C41.5225 123.527 40.2621 124.201 39.2257 125.153C38.1894 126.105 37.4108 127.304 36.9626 128.638C37.6632 127.817 38.4999 127.122 39.4361 126.584C40.1347 126.074 40.9416 125.731 41.7941 125.582C42.6467 125.434 43.522 125.484 44.352 125.729C44.5698 125.822 44.5076 126.102 44.352 126.211C43.4204 126.861 42.5507 127.595 41.754 128.404C40.3051 129.828 39.1894 131.554 38.4872 133.46C37.7957 135.405 37.7467 137.521 38.3471 139.496C38.3471 139.667 38.2538 139.885 38.0671 139.854C37.3619 139.824 36.6586 139.947 36.0058 140.216C35.3531 140.485 34.7666 140.892 34.2869 141.41C35.9436 141.088 37.6571 141.23 39.2382 141.82C40.8194 142.41 42.2068 143.426 43.2475 144.754C44.4298 146.31 45.2543 147.959 46.3588 149.421C46.3879 147.971 46.2044 146.525 45.8143 145.128C45.8024 145.086 45.8001 145.043 45.8077 145.001C45.8153 144.958 45.8326 144.918 45.8581 144.884C45.8837 144.849 45.9169 144.821 45.9552 144.801C45.9935 144.781 46.0358 144.771 46.0788 144.77C47.4404 145.061 48.8595 144.902 50.1235 144.319C51.2502 143.615 52.135 142.584 52.6593 141.363C53.2678 140.146 53.7124 138.854 53.9816 137.521C54.3497 136.173 54.4291 134.763 54.2147 133.382C54.0002 132.001 53.4967 130.682 52.737 129.509C52.5815 129.307 52.8459 129.042 53.0637 129.104C53.9021 129.334 54.6961 129.702 55.4128 130.193C55.1202 128.209 54.0724 126.414 52.4881 125.184Z" fill="#FED1B4"/>
</g>
<path d="M84.566 120.253C82.5814 119.701 80.4701 119.822 78.5611 120.595C77.6032 120.834 76.6966 121.246 75.8853 121.808C75.1207 122.391 74.4628 123.102 73.9408 123.909C73.3581 124.683 72.9832 125.593 72.8518 126.553C72.8518 126.864 73.2563 126.88 73.4274 126.724C75.155 125.307 77.2365 124.387 79.4478 124.064C81.8557 123.608 84.3403 123.774 86.6661 124.546C87.2878 124.754 87.8751 125.052 88.4084 125.433C88.8751 125.791 89.1707 126.398 89.6996 126.662C89.9174 126.755 90.2908 126.662 90.2752 126.335C90.1663 123.224 87.3661 121.077 84.566 120.253Z" fill="#684321"/>
<path d="M85.2191 142.25C85.8586 141.715 86.5918 141.304 87.3814 141.036C88.0281 140.04 88.4672 138.924 88.6726 137.754C88.8634 136.279 88.8267 134.784 88.5637 133.32L88.4237 132.776C88.2123 132.022 87.9471 131.283 87.6303 130.567C87.0784 129.473 86.2464 128.544 85.2191 127.876C81.501 125.511 76.8807 127.424 75.2939 131.967C74.3461 134.566 74.2914 137.407 75.1384 140.041C75.4152 140.852 75.8646 141.593 76.4554 142.213C77.0462 142.833 77.7645 143.318 78.5608 143.634C80.2636 144.226 82.1162 144.226 83.819 143.634C84.2391 143.128 84.7081 142.664 85.2191 142.25Z" fill="white"/>
<path d="M81.1434 144.381C80.2198 144.38 79.3035 144.217 78.4365 143.899C77.6173 143.56 76.8798 143.051 76.2735 142.404C75.6671 141.758 75.2059 140.989 74.9207 140.15C74.0464 137.451 74.1012 134.537 75.0763 131.874C75.4308 130.752 76.0349 129.726 76.8433 128.872C77.6517 128.018 78.6432 127.358 79.7433 126.942C80.6795 126.612 81.6794 126.504 82.6646 126.625C83.6498 126.747 84.5934 127.095 85.4215 127.642C86.4882 128.332 87.3526 129.293 87.9261 130.427C88.2561 131.163 88.5317 131.922 88.7506 132.698L88.8906 133.258C89.156 134.753 89.1928 136.279 88.9995 137.785C88.7989 139.002 88.3429 140.163 87.6616 141.192C87.6299 141.244 87.5801 141.283 87.5216 141.301C86.7577 141.558 86.05 141.96 85.437 142.483C84.9407 142.887 84.4872 143.34 84.0836 143.837C84.0531 143.88 84.0095 143.913 83.9591 143.93C83.0517 144.234 82.1004 144.386 81.1434 144.381ZM81.7812 127.144C81.1246 127.146 80.4729 127.257 79.8522 127.471C78.8316 127.86 77.9124 128.475 77.1634 129.27C76.4144 130.064 75.8551 131.018 75.5274 132.06C74.6048 134.606 74.5556 137.386 75.3874 139.963C75.6575 140.732 76.0908 141.433 76.6574 142.018C77.224 142.603 77.9105 143.059 78.6699 143.354C80.2844 143.9 82.0334 143.9 83.648 143.354C84.0698 142.855 84.5329 142.392 85.0325 141.97C85.6772 141.435 86.4085 141.014 87.1949 140.725C87.7996 139.779 88.207 138.721 88.3928 137.614C88.5785 136.175 88.5418 134.717 88.2839 133.289C88.2499 133.11 88.2031 132.933 88.1439 132.76C87.9456 132.014 87.6855 131.285 87.366 130.582C86.8296 129.545 86.0371 128.661 85.0637 128.015C84.0834 127.425 82.9564 127.123 81.8123 127.144H81.7812Z" fill="#BA774B"/>
<path d="M86.3393 136.369C86.3393 139.481 84.0992 142.141 81.439 142.156C78.7788 142.172 76.632 139.574 76.6942 136.369C76.7564 133.165 78.9188 130.598 81.5945 130.598C84.2703 130.598 86.3704 133.18 86.3393 136.369Z" fill="#9E6A3D"/>
<g style="mix-blend-mode:multiply">
<path d="M84.5658 136.354C84.6185 137.204 84.3402 138.042 83.7892 138.691C83.2383 139.341 82.4574 139.752 81.6101 139.839C81.1922 139.806 80.7853 139.689 80.4137 139.495C80.0421 139.301 79.7135 139.035 79.4476 138.711C79.1818 138.387 78.9841 138.012 78.8665 137.61C78.7489 137.208 78.7137 136.786 78.7632 136.37C78.7024 135.516 78.9773 134.672 79.5295 134.018C80.0816 133.365 80.8672 132.952 81.719 132.869C82.5578 132.956 83.3283 133.371 83.8618 134.024C84.3953 134.677 84.6484 135.515 84.5658 136.354Z" fill="#5F4728"/>
</g>
<g style="mix-blend-mode:multiply">
<path d="M76.7721 135.452C76.7236 135.755 76.6976 136.062 76.6943 136.369C76.6943 139.574 78.7634 142.141 81.4391 142.156C84.1149 142.172 86.2928 139.558 86.3394 136.369C86.3637 136.085 86.3637 135.798 86.3394 135.514C83.3526 137.225 79.1212 137.645 76.7721 135.452Z" fill="#9E6A3D"/>
</g>
<path d="M80.8167 134.985C80.797 135.428 80.6089 135.847 80.291 136.156C79.973 136.466 79.549 136.642 79.1055 136.649C78.8898 136.617 78.6833 136.54 78.4994 136.423C78.3156 136.306 78.1584 136.151 78.0381 135.969C77.9178 135.787 77.8371 135.582 77.8012 135.367C77.7654 135.152 77.7751 134.932 77.8298 134.72C77.8574 134.272 78.0543 133.851 78.3806 133.542C78.7069 133.233 79.1384 133.059 79.5877 133.056C79.7992 133.094 80.0006 133.175 80.1791 133.295C80.3576 133.415 80.5093 133.57 80.6248 133.751C80.7403 133.932 80.8169 134.136 80.85 134.348C80.883 134.56 80.8717 134.777 80.8167 134.985Z" fill="white"/>
<path d="M79.8676 138.065C79.856 138.275 79.7667 138.472 79.617 138.619C79.4673 138.766 79.2682 138.851 79.0586 138.859C78.9581 138.842 78.8621 138.805 78.7764 138.75C78.6907 138.695 78.6172 138.623 78.5604 138.538C78.5036 138.454 78.4646 138.359 78.446 138.259C78.4273 138.158 78.4293 138.056 78.4519 137.956C78.4559 137.743 78.5424 137.54 78.6933 137.389C78.8441 137.238 79.0476 137.151 79.2608 137.147C79.362 137.166 79.4583 137.204 79.5441 137.261C79.6298 137.318 79.7033 137.391 79.7599 137.477C79.8166 137.563 79.8554 137.659 79.8738 137.76C79.8923 137.861 79.8902 137.965 79.8676 138.065Z" fill="white"/>
<path d="M91.0685 140.15C90.511 140.218 89.9501 140.254 89.3884 140.259C88.8562 140.326 88.3339 140.456 87.8328 140.648C86.8376 141.046 85.8968 141.569 85.0326 142.203C83.4938 143.237 82.3184 144.728 81.6723 146.466C81.5945 146.73 81.9835 146.668 82.0768 146.466C82.8786 144.913 84.0222 143.562 85.4215 142.514C86.2367 141.928 87.126 141.452 88.0661 141.099C88.5697 140.912 89.0909 140.776 89.6218 140.694C90.1506 140.625 90.6715 140.505 91.1774 140.336C91.193 140.336 91.2552 140.103 91.0685 140.15Z" fill="#BA774B"/>
<path d="M37.4761 126.335C37.4761 126.6 37.8494 126.755 38.0517 126.662C38.5806 126.398 38.8762 125.791 39.3429 125.433C39.8818 125.052 40.4742 124.753 41.1008 124.546C43.4212 123.774 45.9008 123.608 48.3035 124.064C50.5148 124.387 52.5963 125.307 54.3239 126.724C54.5106 126.88 54.9306 126.864 54.8995 126.553C54.7741 125.594 54.4045 124.684 53.8261 123.909C53.2951 123.109 52.6384 122.399 51.8815 121.808C51.0663 121.243 50.1541 120.831 49.1902 120.595C47.2877 119.817 45.1797 119.696 43.2009 120.253C40.4318 121.077 37.585 123.224 37.4761 126.335Z" fill="#684321"/>
<path d="M42.2519 142.25C41.6124 141.715 40.8792 141.304 40.0895 141.037C39.4429 140.04 39.0037 138.924 38.7983 137.754C38.6075 136.279 38.6443 134.784 38.9072 133.32L39.0472 132.776C39.2587 132.022 39.5238 131.283 39.8406 130.567C40.3925 129.473 41.2245 128.544 42.2519 127.876C45.9699 125.511 50.388 127.16 52.177 131.967C53.1529 134.561 53.2078 137.411 52.3326 140.041C52.0557 140.852 51.6064 141.593 51.0155 142.213C50.4247 142.834 49.7064 143.318 48.9101 143.635C47.2073 144.226 45.3548 144.226 43.652 143.635C43.2318 143.128 42.7628 142.664 42.2519 142.25Z" fill="white"/>
<path d="M46.3275 144.381C45.3966 144.378 44.4722 144.226 43.5896 143.93C43.5392 143.913 43.4955 143.88 43.4651 143.837C43.0615 143.34 42.608 142.887 42.1117 142.483C41.4986 141.96 40.791 141.558 40.0271 141.301C39.9708 141.279 39.9222 141.241 39.8871 141.192C39.2082 140.168 38.7523 139.013 38.5492 137.801C38.3555 136.29 38.3923 134.758 38.6581 133.258L38.7981 132.698C39.0162 131.929 39.2865 131.175 39.6071 130.442C40.1911 129.307 41.0593 128.342 42.1272 127.642C42.9407 127.09 43.8697 126.732 44.8432 126.594C45.8166 126.457 46.8086 126.544 47.7432 126.849C48.859 127.275 49.8648 127.946 50.6861 128.813C51.5074 129.68 52.1232 130.721 52.488 131.858C53.4775 134.52 53.5269 137.44 52.628 140.134C52.3362 140.984 51.864 141.76 51.2437 142.41C50.6233 143.06 49.8696 143.568 49.0344 143.899C48.1679 144.219 47.2513 144.382 46.3275 144.381ZM43.8073 143.354C45.4219 143.9 47.1709 143.9 48.7855 143.354C49.5435 143.052 50.2276 142.589 50.7912 141.999C51.3549 141.408 51.785 140.703 52.0524 139.932C52.9127 137.364 52.8577 134.577 51.8968 132.045C51.5656 130.986 50.9988 130.016 50.239 129.208C49.4792 128.399 48.5461 127.774 47.5098 127.378C46.6586 127.099 45.7549 127.019 44.8679 127.143C43.9809 127.267 43.134 127.592 42.3917 128.093C41.4132 128.744 40.6158 129.633 40.0738 130.676C39.7639 131.376 39.509 132.099 39.3115 132.838C39.3115 133.025 39.2181 133.196 39.1715 133.367C38.9137 134.8 38.877 136.264 39.0626 137.707C39.2492 138.814 39.6565 139.872 40.2604 140.819C41.0468 141.107 41.7781 141.528 42.4228 142.063C42.9253 142.448 43.389 142.88 43.8073 143.354Z" fill="#BA774B"/>
<path d="M50.8234 136.369C50.911 137.782 50.4479 139.174 49.5314 140.253C48.6149 141.332 47.3161 142.014 45.9075 142.156C43.2473 142.156 41.1161 139.574 41.2405 136.369C41.365 133.165 43.4651 130.598 46.1253 130.598C48.7855 130.598 50.8545 133.18 50.8234 136.369Z" fill="#9E6A3D"/>
<g style="mix-blend-mode:multiply">
<path d="M49.05 136.354C49.1026 137.204 48.8243 138.042 48.2734 138.691C47.7224 139.341 46.9415 139.752 46.0942 139.839C45.675 139.808 45.2664 139.693 44.893 139.5C44.5196 139.307 44.1892 139.04 43.9217 138.716C43.6541 138.392 43.4551 138.017 43.3366 137.613C43.218 137.21 43.1824 136.787 43.2318 136.37C43.1789 135.518 43.4567 134.678 44.0074 134.026C44.558 133.374 45.3389 132.96 46.1876 132.869C47.0276 132.956 47.7994 133.37 48.3354 134.023C48.8714 134.675 49.1282 135.513 49.05 136.354Z" fill="#5F4728"/>
</g>
<g style="mix-blend-mode:multiply">
<path d="M41.2563 135.452C41.2077 135.755 41.1817 136.062 41.1785 136.369C41.1785 139.574 43.2475 142.141 45.8455 142.156C47.254 142.014 48.5528 141.332 49.4693 140.253C50.3859 139.174 50.8489 137.782 50.7614 136.369C50.7614 136.074 50.7614 135.778 50.7614 135.514C47.8367 137.225 43.6053 137.645 41.2563 135.452Z" fill="#9E6A3D"/>
</g>
<path d="M45.3631 134.985C45.3397 135.427 45.1506 135.844 44.8334 136.152C44.5162 136.461 44.0942 136.638 43.6519 136.649C43.4362 136.617 43.2297 136.54 43.0458 136.423C42.8619 136.306 42.7048 136.151 42.5845 135.969C42.4642 135.787 42.3835 135.582 42.3476 135.367C42.3117 135.152 42.3215 134.932 42.3762 134.72C42.3996 134.279 42.5887 133.862 42.9059 133.553C43.2232 133.245 43.6451 133.067 44.0874 133.056C44.3031 133.088 44.5096 133.165 44.6935 133.283C44.8774 133.4 45.0346 133.554 45.1548 133.736C45.2751 133.918 45.3558 134.123 45.3917 134.339C45.4276 134.554 45.4178 134.774 45.3631 134.985Z" fill="white"/>
<path d="M44.352 138.065C44.3404 138.275 44.2511 138.472 44.1014 138.619C43.9517 138.766 43.7525 138.851 43.543 138.859C43.4421 138.842 43.3456 138.805 43.2593 138.75C43.173 138.695 43.0986 138.624 43.0405 138.539C42.9825 138.455 42.9419 138.36 42.9214 138.26C42.9008 138.16 42.9006 138.057 42.9207 137.956C42.9247 137.844 42.9509 137.733 42.9976 137.631C43.0444 137.529 43.1108 137.437 43.1932 137.36C43.2755 137.284 43.3722 137.224 43.4776 137.185C43.583 137.146 43.6951 137.128 43.8075 137.132C44.0015 137.187 44.1667 137.314 44.2683 137.489C44.3698 137.663 44.3998 137.869 44.352 138.065Z" fill="white"/>
<path d="M36.4335 140.15C36.991 140.217 37.5519 140.254 38.1136 140.259C38.6456 140.327 39.1678 140.457 39.6692 140.648C40.6595 141.046 41.5951 141.569 42.4539 142.203C43.9985 143.235 45.1795 144.726 45.8297 146.466C45.8297 146.73 45.5185 146.668 45.4252 146.466C44.1828 143.987 42.0488 142.069 39.4514 141.099C38.9475 140.913 38.4264 140.777 37.8958 140.694C37.367 140.625 36.8461 140.505 36.3401 140.336C36.309 140.336 36.2468 140.103 36.4335 140.15Z" fill="#BA774B"/>
<path d="M121.762 106.936C121.403 106.952 121.052 107.048 120.735 107.216C120.24 107.195 119.752 107.095 119.288 106.921C118.561 106.674 117.886 106.294 117.297 105.801C115.966 104.607 114.946 103.106 114.326 101.429C113.604 99.6131 112.981 97.7592 112.459 95.8756C111.893 93.8252 111.116 91.839 110.141 89.9485C108.323 86.4201 105.978 83.1888 103.187 80.3656C100.467 77.6969 97.3102 75.5134 93.8533 73.9096C91.7436 72.9383 89.5234 72.2279 87.2418 71.7939C86.4471 71.6292 85.641 71.5252 84.8305 71.4828C83.984 70.7334 83.0489 70.0908 82.0458 69.5693C79.51 68.3351 76.8287 67.4256 74.0653 66.8625C68.2189 65.4963 62.1514 65.3691 56.2529 66.4891C50.6192 67.5226 45.1121 69.1549 39.8251 71.3583C34.427 73.9126 29.227 76.8662 24.2685 80.1945C21.9808 81.6998 19.5953 83.051 17.128 84.2392C14.8464 85.423 12.2368 85.8169 9.70748 85.3593C9.06625 85.1897 8.44934 84.9387 7.87179 84.6126C7.82611 84.593 7.77658 84.5842 7.72696 84.5867C7.67734 84.5891 7.62894 84.6029 7.58544 84.6269C7.54194 84.6509 7.5045 84.6845 7.47594 84.7251C7.44738 84.7658 7.42848 84.8124 7.42065 84.8615C7.42663 85.8068 7.79398 86.7141 8.4474 87.3972C8.88544 87.955 9.41077 88.4383 10.0031 88.8284C10.0832 88.8666 10.1665 88.8978 10.2519 88.9218C11.0297 89.4738 11.8986 89.8846 12.8188 90.1352C14.7057 90.6408 16.679 90.7363 18.6059 90.4152C17.958 91.0558 17.3452 91.7309 16.7702 92.4376C15.6218 93.8775 14.6406 95.4432 13.8456 97.1046C12.9916 98.7733 12.4636 100.59 12.2899 102.456C11.9165 108.943 17.6569 113.221 19.6637 118.915C20.3919 120.624 20.4584 122.542 19.8504 124.298C19.4597 125.26 18.759 126.065 17.8592 126.584C16.9937 127.017 16.0181 127.18 15.059 127.051C14.9034 127.051 14.5767 127.347 14.7945 127.456C16.5325 128.482 18.5975 128.805 20.566 128.358L20.8771 128.233C20.6544 129.507 20.5865 130.802 20.6749 132.091C20.9827 135.16 22.3399 138.028 24.5174 140.212C25.2548 140.89 26.0399 141.513 26.8664 142.079C27.5999 142.33 28.3638 142.482 29.1377 142.53C29.0395 142.325 28.9614 142.112 28.9044 141.892C28.7232 141.387 28.5878 140.866 28.4999 140.336C28.2702 137.922 28.815 135.498 30.0556 133.414C30.7401 132.029 31.5023 130.691 32.2179 129.322C32.9335 127.953 33.618 126.553 34.2247 125.122C35.3809 122.421 35.994 119.519 36.0293 116.581C36.0464 115.64 35.9944 114.699 35.8737 113.766C38.5513 113.848 41.212 113.316 43.6521 112.21C44.8529 111.671 45.9946 111.009 47.059 110.234C47.0891 110.476 47.1359 110.715 47.199 110.95C47.7029 112.75 48.5911 114.419 49.8023 115.842C51.0136 117.266 52.5191 118.41 54.215 119.195C57.4367 120.724 61.0721 121.151 64.5602 120.408C66.2814 120.093 67.9582 119.571 69.5539 118.853C71.1019 118.186 72.4949 117.206 73.6452 115.975C73.8902 115.696 74.1139 115.4 74.3142 115.088C74.3142 115.088 74.3142 114.87 74.3142 114.855C73.3497 114.684 72.5407 115.679 71.7162 116.037C70.4347 116.6 69.0553 116.907 67.6559 116.939C66.3752 117.006 65.0992 116.738 63.9535 116.161C62.8687 115.592 61.9272 114.783 61.1999 113.797C60.5039 112.853 60.0304 111.763 59.8148 110.61C59.5993 109.457 59.6474 108.27 59.9554 107.139C60.6087 105.143 61.8506 103.391 63.5179 102.114C64.3763 101.418 65.2749 100.774 66.2092 100.185C66.2618 101.614 66.6226 103.015 67.267 104.292C69.3147 107.983 72.6308 110.807 76.601 112.241C80.705 113.952 85.1601 114.651 89.5908 114.279C91.8026 114.051 93.974 113.528 96.0468 112.723C95.8229 113.426 95.6462 114.144 95.5179 114.87C95.0569 117.066 94.9989 119.327 95.3468 121.544C95.571 122.795 95.9525 124.013 96.4824 125.169C96.9647 126.227 97.618 127.191 98.1781 128.28C99.3102 130.183 100.139 132.251 100.636 134.409C100.947 135.596 100.968 136.84 100.697 138.037C100.426 139.234 99.8718 140.348 99.0804 141.285C98.9403 141.441 99.0803 141.659 99.267 141.55C100.584 140.76 101.694 139.668 102.506 138.364C103.317 137.06 103.807 135.582 103.934 134.052C104.528 133.811 105.033 133.393 105.381 132.854C105.909 132.156 106.333 131.386 106.641 130.567C106.904 129.925 107.102 129.257 107.232 128.576C107.775 128.961 108.353 129.294 108.959 129.571C109.757 129.927 110.578 130.229 111.417 130.474C111.65 130.474 112.039 130.24 111.868 129.991C109.472 126.382 112.179 122.213 113.719 118.868C114.608 117.047 115.106 115.06 115.181 113.035C115.225 111.399 114.967 109.769 114.419 108.228C115.447 108.609 116.546 108.763 117.639 108.679C118.328 108.656 119.007 108.514 119.646 108.259C119.973 108.103 120.3 107.885 120.642 107.699C121.059 107.689 121.464 107.56 121.809 107.325C121.949 107.216 122.011 106.921 121.762 106.936Z" fill="#734017"/>
<path d="M118.028 108.15C116.704 108.267 115.371 108.048 114.154 107.512L113.968 107.061C113.44 105.935 112.76 104.888 111.945 103.949C112.288 104.556 112.63 105.163 112.925 105.801C113.548 107.135 113.963 108.557 114.154 110.017C114.376 110.986 114.48 111.978 114.466 112.972C114.409 114.978 113.932 116.95 113.066 118.759C112.158 120.557 111.368 122.413 110.701 124.313C110.374 125.316 110.237 126.371 110.296 127.424C110.356 128.211 110.573 128.978 110.934 129.68C109.631 129.279 108.413 128.641 107.341 127.798C107.471 126.76 107.423 125.708 107.201 124.686C107.201 124.562 107.123 124.438 107.092 124.313C107.211 125.892 107.016 127.478 106.516 128.98C106.252 130.049 105.816 131.069 105.225 131.998C105.011 132.363 104.749 132.698 104.447 132.994C104.312 133.115 104.166 133.224 104.012 133.32C104.065 132.601 104.065 131.878 104.012 131.158C103.987 130.305 103.835 129.461 103.56 128.653C103.676 130.21 103.629 131.774 103.42 133.32C103.432 133.361 103.432 133.404 103.42 133.445C103.42 133.538 103.42 133.632 103.42 133.709C103.23 135.652 102.562 137.517 101.476 139.139C101.082 139.691 100.604 140.179 100.06 140.585C101.094 139.151 101.594 137.402 101.476 135.638C101.292 133.461 100.667 131.344 99.6401 129.416C98.4656 127.413 97.4261 125.334 96.5288 123.193C95.843 120.894 95.6573 118.476 95.9843 116.099C96.1112 114.965 96.3244 113.841 96.6221 112.739C96.6221 112.646 96.6221 112.568 96.6221 112.49C100.527 111.06 103.764 108.233 105.707 104.556C106.158 103.778 106.578 103 106.998 102.16C107.451 101.368 107.801 100.521 108.041 99.6403C108.129 99.2897 108.155 98.9265 108.118 98.5668C108.118 98.3024 107.667 98.4735 107.59 98.5668C107.197 99.4311 106.728 100.259 106.189 101.04C105.582 101.817 104.819 102.459 103.949 102.923C102.371 103.903 100.501 104.305 98.66 104.058C97.6174 103.855 96.6589 103.346 95.9065 102.596C95.7043 102.394 95.2531 102.705 95.4243 102.923C96.061 103.693 96.928 104.238 97.8978 104.478C98.8658 104.696 99.87 104.696 100.838 104.478C102.908 104.144 104.81 103.138 106.252 101.616C106.652 101.138 106.996 100.616 107.278 100.06L106.921 100.885C106.578 101.616 106.158 102.332 105.785 103.063C104.9 104.848 103.757 106.494 102.394 107.947C101.159 109.197 99.7165 110.224 98.1311 110.981C98.1344 111.024 98.1241 111.066 98.1017 111.102C98.0794 111.139 98.0461 111.167 98.0067 111.183L97.4 111.417C97.0695 111.618 96.6968 111.741 96.311 111.774C94.6454 112.447 92.9067 112.922 91.1306 113.19C86.9081 113.777 82.6064 113.334 78.592 111.899C74.6986 110.732 71.2841 108.343 68.8536 105.085C68.1201 104.118 67.5427 103.042 67.1423 101.896C67.0451 101.626 66.9621 101.35 66.8934 101.071C66.5358 99.4755 66.6273 97.8116 67.1579 96.2645C66.7245 97.0923 66.4302 97.9858 66.2867 98.9091C66.2714 99.163 66.2714 99.4175 66.2867 99.6714C63.3972 101.075 61.0632 103.409 59.6596 106.298C59.2208 107.402 59.0243 108.587 59.0833 109.774C59.1424 110.96 59.4556 112.12 60.0018 113.175C60.5681 114.289 61.3855 115.258 62.3898 116.003C63.394 116.748 64.5577 117.25 65.7889 117.468C67.3565 117.676 68.9507 117.533 70.4559 117.048C71.1593 116.859 71.8305 116.565 72.4471 116.177L73.225 115.617C73.4059 115.473 73.6046 115.353 73.8161 115.259C71.7019 117.605 68.8566 119.168 65.7422 119.693C62.541 120.512 59.1687 120.366 56.0504 119.273C54.391 118.684 52.8659 117.77 51.5649 116.584C50.2638 115.398 49.213 113.964 48.4744 112.366C48.1651 111.643 47.9456 110.886 47.821 110.11C47.7245 109.763 47.6518 109.409 47.6032 109.052C47.3925 106.652 48.0493 104.257 49.4544 102.3C48.5449 103.261 47.8549 104.407 47.4321 105.661C47.0159 106.955 46.8833 108.324 47.0431 109.674C46.2699 110.254 45.4533 110.774 44.6007 111.23C42.1067 112.537 39.3271 113.206 36.5113 113.175C36.2014 113.213 35.8878 113.213 35.5779 113.175H35.5001H35.4068H35.2979C32.269 112.833 29.4018 111.629 27.0373 109.705C25.8095 108.791 24.8044 107.61 24.0971 106.252C23.5017 105.028 23.2134 103.677 23.257 102.316C23.4041 99.7503 24.2544 97.2745 25.715 95.1599C25.3791 96.1285 25.2467 97.1559 25.3261 98.1779C25.3577 98.9269 25.5694 99.6573 25.9431 100.307C26.3167 100.957 26.8415 101.507 27.4729 101.912C28.849 102.721 30.4046 103.175 31.9999 103.234C33.6845 103.328 35.369 103.047 36.9313 102.409C38.6523 101.72 40.1453 100.561 41.2405 99.0647C41.3494 98.9091 41.1005 98.8935 41.0072 99.0647C40.0206 100.279 38.7647 101.248 37.339 101.893C35.9134 102.539 34.357 102.843 32.7933 102.783C30.102 102.783 26.664 101.787 25.9017 98.8469C25.62 97.9659 25.545 97.032 25.6826 96.1174C25.8202 95.2028 26.1666 94.3322 26.6951 93.5732C26.7884 93.4643 26.6951 93.3865 26.5551 93.4798C24.5374 95.6425 23.1916 98.3448 22.6814 101.258C22.4642 102.69 22.5954 104.153 23.0639 105.523C23.5324 106.894 24.3244 108.131 25.3727 109.13C27.8084 111.51 30.9231 113.076 34.2867 113.61C34.6445 113.61 35.0023 113.703 35.3601 113.735C35.464 114.622 35.5056 115.517 35.4846 116.41C35.3743 119.44 34.6769 122.42 33.4311 125.184C32.7933 126.74 32.0621 128.124 31.2998 129.54C30.5376 130.956 29.7442 132.263 29.153 133.663C28.4669 135.062 27.9949 136.557 27.7529 138.096C27.6358 138.951 27.6674 139.819 27.8463 140.663C27.9386 141.079 28.0528 141.489 28.1885 141.892H27.7996C27.0335 141.541 26.3294 141.069 25.715 140.492C24.6852 139.501 23.8001 138.37 23.0859 137.132C22.2618 135.765 21.7024 134.256 21.4369 132.683C21.258 131.498 21.2266 130.296 21.3436 129.105C21.3319 127.42 21.5411 125.741 21.9659 124.111C21.6976 124.827 21.4742 125.56 21.2969 126.304C21.1725 126.74 21.0791 127.191 20.9858 127.642C19.3709 128.205 17.6023 128.133 16.0388 127.44C16.6936 127.407 17.3341 127.235 17.9184 126.938C18.5028 126.64 19.0179 126.223 19.4301 125.713C19.969 125.072 20.3701 124.327 20.6083 123.524C20.8465 122.721 20.9167 121.877 20.8147 121.046C20.2841 118.018 19.0299 115.163 17.1588 112.723C15.2702 110.273 13.9041 107.462 13.1452 104.463C12.523 100.76 14.172 97.0423 16.2565 94.0243C17.2112 92.6348 18.3003 91.3426 19.5079 90.1663L20.7213 89.9018L22.0747 89.4818L22.2614 89.2795C21.3 89.5769 20.2961 89.7136 19.2901 89.684C18.6825 89.7803 18.0693 89.8374 17.4544 89.8551C16.0283 89.9181 14.6011 89.7607 13.223 89.3884C13.4924 89.404 13.7625 89.404 14.032 89.3884C13.5078 89.3546 12.9874 89.2765 12.4763 89.1551C11.7911 88.9055 11.1423 88.5654 10.5473 88.1439C9.4706 87.4208 8.6018 86.4286 8.0271 85.2659C8.0271 85.2659 8.0271 85.2659 8.0271 85.1726C12.4763 87.4439 17.61 84.7526 21.5147 82.4813C26.6951 79.4477 31.611 75.9475 36.9935 73.2718C42.135 70.7785 47.5561 68.9088 53.1413 67.7025C56.0707 66.9844 59.0597 66.5366 62.0709 66.3646C65.1214 66.2374 68.1768 66.4303 71.187 66.9402C74.0709 67.41 76.9043 68.1496 79.6498 69.1493C80.9794 69.7116 82.2776 70.3451 83.539 71.0472L84.3168 71.5916L84.6435 71.8561H85.2191C85.6403 71.8984 86.0537 71.9979 86.4481 72.1517C88.4921 72.5479 90.4928 73.1418 92.4219 73.9251C95.9621 75.4671 99.2093 77.6091 102.02 80.2567C104.937 83.0865 107.385 86.3634 109.27 89.964C110.286 91.8738 111.094 93.8869 111.681 95.9689C112.212 97.9353 112.861 99.8679 113.626 101.756C114.324 103.576 115.481 105.184 116.986 106.423C117.696 106.942 118.507 107.307 119.366 107.496H119.802C119.26 107.831 118.657 108.053 118.028 108.15Z" fill="#AD6330"/>
<g style="mix-blend-mode:screen">
<path d="M24.1285 122.057C24.0795 123.538 23.8973 125.012 23.584 126.46C23.3974 127.471 23.1796 128.467 22.9462 129.462C23.665 128.43 24.3196 127.355 24.9064 126.242C25.624 124.824 25.9979 123.258 25.9979 121.668C25.9979 120.079 25.624 118.513 24.9064 117.095C23.9647 115.478 22.814 113.993 21.4839 112.677L22.2306 114.232C23.4249 116.672 24.0726 119.342 24.1285 122.057Z" fill="#AD6330"/>
</g>
<g style="mix-blend-mode:screen">
<path d="M25.1394 95.8912C24.7081 97.5506 24.9367 99.3127 25.7772 100.807C26.333 101.694 27.0665 102.455 27.9313 103.044C28.7961 103.633 29.7735 104.037 30.802 104.23C33.4731 104.685 36.2194 104.333 38.6892 103.218C41.2628 102.162 43.5152 100.452 45.223 98.2558C45.9855 97.2644 46.6229 96.1828 47.1209 95.0356C47.5439 94.1761 47.742 93.2233 47.6965 92.2665C46.9498 93.1377 46.1409 94.0088 45.503 94.8955C44.1197 96.6943 42.5559 98.3467 40.836 99.827C40.2663 100.303 39.6574 100.729 39.0159 101.103C38.3474 101.594 37.6212 102.001 36.8535 102.316C35.2913 102.953 33.6067 103.235 31.9221 103.141C30.3268 103.082 28.7712 102.627 27.3951 101.818C26.7637 101.414 26.239 100.864 25.8653 100.214C25.4916 99.564 25.28 98.8337 25.2483 98.0847C25.169 97.0626 25.3014 96.0352 25.6372 95.0667L25.1394 95.8912Z" fill="#AD6330"/>
</g>
<g style="mix-blend-mode:screen">
<path d="M13.4568 87.1171C15.5604 87.1199 17.6455 86.724 19.6016 85.9503C23.6841 84.3106 27.546 82.168 31.098 79.5721C35.3591 76.5861 39.8539 73.9485 44.5389 71.6849C49.3483 69.3844 54.4212 67.6813 59.6444 66.6134C57.4784 66.881 55.3285 67.2653 53.204 67.7646C47.5701 68.9652 42.1014 70.8403 36.9162 73.3494C31.5336 76.0252 26.6177 79.5721 21.4373 82.559C17.5326 84.8302 12.3989 87.5215 7.94971 85.2503C9.54283 86.4373 11.4702 87.0906 13.4568 87.1171Z" fill="#AD6330"/>
</g>
<g style="mix-blend-mode:screen">
<path d="M55.0549 79.1833C51.4975 80.8149 48.3586 83.2356 45.8765 86.2616C47.4321 85.1726 48.9878 84.0837 50.5435 83.0569C52.382 81.8505 54.3238 80.8093 56.3461 79.9456C58.487 79.041 60.6982 78.3126 62.9576 77.7677C65.9804 76.984 69.0912 76.5919 72.2138 76.6009C70.9231 76.386 69.6176 76.2716 68.3091 76.2587C63.7258 76.2096 59.192 77.21 55.0549 79.1833Z" fill="#AD6330"/>
</g>
<g style="mix-blend-mode:screen">
<path d="M56.0973 72.2916C59.5409 71.233 63.0963 70.5804 66.6914 70.347C64.2245 69.7382 61.6539 69.6798 59.162 70.1759C55.0988 70.9257 51.1778 72.3062 47.5411 74.2673C45.7633 75.1671 44.115 76.3026 42.6408 77.6431C41.5419 78.6236 40.6982 79.857 40.1829 81.2367C41.7385 80.0699 43.2942 78.8254 44.8499 77.6431C46.3888 76.4405 48.0464 75.3979 49.7969 74.5318C51.8329 73.6157 53.94 72.8665 56.0973 72.2916Z" fill="#AD6330"/>
</g>
<g style="mix-blend-mode:screen">
<path d="M98.6134 119.91C98.2711 119.288 97.9134 118.666 97.5867 118.044C97.6948 119.979 98.0717 121.89 98.7067 123.722C99.1871 125.388 100.02 126.932 101.149 128.249C101.079 127.274 100.907 126.31 100.636 125.371C100.356 124.329 100.013 123.302 99.6713 122.26C99.3978 121.443 99.0434 120.656 98.6134 119.91Z" fill="#AD6330"/>
</g>
<g style="mix-blend-mode:screen">
<path d="M84.5036 108.943C81.4822 108.314 78.668 106.934 76.3208 104.93C74.9179 103.675 73.7921 102.141 73.0153 100.427C72.2385 98.7129 71.8278 96.8554 71.8094 94.9734C71.837 93.2914 72.2131 91.6334 72.9139 90.1041C70.9331 92.3157 69.7645 95.1358 69.6004 98.1002C69.5961 100.145 70.1139 102.157 71.1049 103.946C72.0959 105.734 73.5271 107.24 75.263 108.321C78.2329 110.154 81.6108 111.223 85.0948 111.432C88.7814 111.801 92.5037 111.333 95.9844 110.063C97.2611 109.579 98.4692 108.931 99.578 108.134C97.8848 108.733 96.1325 109.151 94.351 109.379C91.0692 109.83 87.7328 109.682 84.5036 108.943Z" fill="#AD6330"/>
</g>
<g style="mix-blend-mode:screen">
<path d="M72.4471 116.177C71.8304 116.565 71.1593 116.858 70.4558 117.048C69.6036 117.323 68.7204 117.49 67.8268 117.546C67.8367 117.602 67.8302 117.66 67.8081 117.712C67.786 117.764 67.7493 117.809 67.7023 117.841L66.8156 118.293C65.9193 118.677 64.9787 118.949 64.0154 119.102H64.3421C67.3192 119.155 70.217 118.14 72.5093 116.239C72.5615 116.189 72.6312 116.161 72.7037 116.161C72.7763 116.161 72.846 116.189 72.8982 116.239C73.2364 115.933 73.5438 115.594 73.816 115.228C73.6045 115.321 73.4059 115.442 73.2249 115.586L72.4471 116.177Z" fill="#AD6330"/>
</g>
<g style="mix-blend-mode:screen">
<path d="M51.8814 107.247C51.9511 103.438 53.2073 99.7458 55.4749 96.6845C56.514 95.2124 57.7257 93.8702 59.0841 92.6864C56.9733 93.9364 55.0727 95.5114 53.4526 97.3534C51.0295 100.031 49.5347 103.419 49.1901 107.014C49.037 108.624 49.2334 110.248 49.7656 111.774C50.2596 113.008 51.0253 114.114 52.0058 115.01C53.9431 116.798 56.35 117.996 58.9441 118.464C57.6568 117.859 56.4791 117.044 55.4594 116.052C53.1488 113.706 51.8622 110.54 51.8814 107.247Z" fill="#AD6330"/>
</g>
<g style="mix-blend-mode:screen">
<path d="M19.3056 116.333C18.6211 114.668 17.75 113.081 17.0032 111.479C15.7464 109.004 15.0757 106.274 15.0431 103.498C15.1364 98.1157 18.2633 93.511 21.8414 89.7307C21.1309 89.8484 20.44 90.063 19.7879 90.3685C19.4145 90.5397 19.0567 90.7419 18.6989 90.9441C17.7788 91.9097 16.941 92.9504 16.1943 94.0555C14.1719 97.0734 12.5229 100.791 13.083 104.494C13.8399 107.498 15.206 110.315 17.0966 112.77C17.8987 113.916 18.6362 115.105 19.3056 116.333Z" fill="#AD6330"/>
</g>
<g style="mix-blend-mode:multiply" opacity="0.42">
<path d="M22.9927 123.737C23.2962 122.438 23.3751 121.096 23.2261 119.771C23.0959 120.3 22.9296 120.82 22.7283 121.326C21.786 124.031 19.9398 126.327 17.5012 127.829C18.6603 128.097 19.8729 128.016 20.9859 127.596C21.0793 127.144 21.1726 126.693 21.297 126.258C21.4743 125.513 21.6977 124.781 21.966 124.064C21.6636 125.225 21.476 126.413 21.406 127.611C22.1687 126.428 22.7067 125.115 22.9927 123.737Z" fill="#AD6330"/>
</g>
<g style="mix-blend-mode:multiply">
<path d="M18.2014 126.755C17.945 126.929 17.6681 127.07 17.3769 127.176C16.9452 127.325 16.495 127.414 16.0391 127.44L16.568 127.627C16.7346 127.581 16.8962 127.518 17.0503 127.44C17.4562 127.251 17.8419 127.022 18.2014 126.755Z" fill="#AD6330"/>
</g>
<g style="mix-blend-mode:multiply" opacity="0.42">
<path d="M17.3613 89.9019C17.9762 89.8842 18.5893 89.827 19.1969 89.7307C20.2029 89.7603 21.2068 89.6236 22.1683 89.3263L21.9816 89.5285L20.6282 89.9485L19.4148 90.213L18.9481 90.6952C20.6272 90.2482 22.2621 89.6494 23.8328 88.9062C25.3487 88.2537 26.824 87.5108 28.2509 86.6816C31.57 84.764 34.3522 82.0406 36.3404 78.7633C33.4313 80.6612 30.6 82.6836 27.5353 84.3015C25.0535 85.6969 22.3478 86.6497 19.5392 87.1172C17.7398 87.358 15.9252 87.4672 14.1099 87.4439C12.3761 87.4706 10.6459 87.2771 8.96069 86.8683C9.37274 87.3544 9.84295 87.7881 10.3608 88.1595C10.9559 88.581 11.6046 88.9211 12.2898 89.1707C12.8009 89.2921 13.3213 89.3702 13.8455 89.404C13.5761 89.4196 13.3059 89.4196 13.0365 89.404C14.4429 89.7965 15.9025 89.9645 17.3613 89.9019Z" fill="#AD6330"/>
</g>
<g style="mix-blend-mode:multiply" opacity="0.42">
<path d="M48.3814 103.654C48.5214 103.156 48.6769 102.658 48.8481 102.098C49.4548 100.263 50.1393 98.4425 50.6682 96.5757C49.3461 98.9747 47.5396 101.073 45.3634 102.736C42.3624 105.137 38.7328 106.623 34.9093 107.014C33.2784 107.232 31.619 107.029 30.0887 106.425C28.5584 105.82 27.2082 104.834 26.1665 103.561C25.4606 102.472 25.0004 101.243 24.8177 99.9592C24.635 98.675 24.7343 97.3664 25.1086 96.1245C24.0128 97.978 23.3878 100.072 23.2885 102.223C23.2448 103.583 23.5332 104.934 24.1286 106.159C24.8358 107.517 25.8409 108.697 27.0688 109.612C29.4332 111.536 32.3004 112.74 35.3293 113.081H35.4382H35.5316H35.6093C35.9193 113.12 36.2328 113.12 36.5428 113.081C39.3586 113.112 42.1381 112.444 44.6322 111.137C45.4848 110.681 46.3013 110.161 47.0746 109.581C46.9147 108.231 47.0474 106.862 47.4635 105.567C47.6833 104.892 47.9919 104.248 48.3814 103.654Z" fill="#AD6330"/>
</g>
<g style="mix-blend-mode:multiply" opacity="0.42">
<path d="M68.1224 94.3665C69.5847 92.0486 71.9182 90.4773 73.4583 88.2372H72.6338C70.6819 88.377 68.7778 88.906 67.0334 89.7928C65.2124 90.6918 63.4827 91.7651 61.8686 92.9975C60.3375 94.1428 58.9713 95.4934 57.8083 97.0111C56.6126 98.5713 55.7015 100.33 55.117 102.207C53.9449 105.962 54.2681 110.025 56.0193 113.548C56.7174 115.082 57.7873 116.417 59.1319 117.433C60.4766 118.449 62.0536 119.114 63.7199 119.366C65.4156 119.512 67.1226 119.275 68.7141 118.672C70.3057 118.069 71.7411 117.115 72.9138 115.881L72.5094 116.177C71.8927 116.565 71.2216 116.859 70.5181 117.048C69.0129 117.533 67.4187 117.676 65.8511 117.468C64.6199 117.249 63.4563 116.748 62.452 116.003C61.4478 115.258 60.6303 114.289 60.064 113.174C59.5178 112.12 59.2046 110.96 59.1456 109.774C59.0865 108.587 59.283 107.402 59.7218 106.298C61.1254 103.409 63.4594 101.075 66.3489 99.6713C66.3336 99.4174 66.3336 99.1629 66.3489 98.909C66.4924 97.9857 66.7867 97.0923 67.2201 96.2644C67.4606 95.6048 67.7627 94.9694 68.1224 94.3665Z" fill="#AD6330"/>
</g>
<g style="mix-blend-mode:multiply" opacity="0.42">
<path d="M34.2866 113.626C30.9212 113.087 27.8062 111.516 25.3727 109.13C25.1441 108.911 24.931 108.678 24.7349 108.43C24.906 108.756 25.0771 109.083 25.2638 109.394C26.6585 111.446 27.9362 113.576 29.0907 115.772C29.5994 116.903 29.9048 118.114 29.993 119.35C30.052 120.941 29.7928 122.528 29.2307 124.017C28.6085 125.744 27.6751 127.362 27.0372 129.058C26.3114 130.757 25.9104 132.578 25.8549 134.425C25.8081 136.86 26.4208 139.263 27.6284 141.379L28.1417 141.892C28.0061 141.489 27.8919 141.078 27.7995 140.663C27.6207 139.819 27.5891 138.951 27.7062 138.096C27.9481 136.557 28.4201 135.062 29.1063 133.663C29.7597 132.262 30.5219 130.909 31.2531 129.54C31.9842 128.171 32.8088 126.678 33.3843 125.184C34.6301 122.42 35.3275 119.44 35.4378 116.41C35.4588 115.517 35.4172 114.622 35.3134 113.734C35.0022 113.797 34.6444 113.688 34.2866 113.626Z" fill="#AD6330"/>
</g>
<g style="mix-blend-mode:multiply" opacity="0.42">
<path d="M119.444 107.574C118.585 107.385 117.774 107.019 117.064 106.501C115.559 105.261 114.402 103.653 113.704 101.834C112.939 99.9455 112.29 98.013 111.759 96.0465C111.172 93.9645 110.364 91.9514 109.348 90.0417C107.463 86.441 105.016 83.1641 102.098 80.3343C99.2874 77.6868 96.0402 75.5447 92.4999 74.0028C90.5708 73.2194 88.5702 72.6255 86.5262 72.2293C86.1318 72.0755 85.7184 71.9761 85.2972 71.9337H84.7216L84.3949 71.6693L83.6171 71.1248C82.3557 70.4228 81.0574 69.7892 79.7279 69.2269C76.9823 68.2272 74.149 67.4876 71.2651 67.0178C68.2548 66.5079 65.1994 66.315 62.1489 66.4422L60.5932 66.5356C62.1592 66.6228 63.7181 66.8098 65.2602 67.0956C67.0855 67.3886 68.8814 67.8415 70.6273 68.4491C72.2996 68.8514 73.8023 69.7715 74.9209 71.0781C74.9455 71.1279 74.9556 71.1836 74.95 71.2389C74.9444 71.2942 74.9233 71.3467 74.8892 71.3906C74.8551 71.4344 74.8094 71.4677 74.7572 71.4868C74.705 71.5058 74.6485 71.5098 74.5942 71.4982C73.4468 71.1207 72.2363 70.9727 71.0318 71.0626C68.7204 71.252 66.4791 71.9478 64.4669 73.1005C62.8124 73.9662 61.3139 75.1018 60.0332 76.4607C62.4568 75.4989 64.9916 74.8456 67.5782 74.5161C70.1163 74.219 72.6872 74.377 75.1698 74.9828C77.6311 75.5398 79.9508 76.599 81.9836 78.0942C85.0949 80.5988 86.5573 84.5035 88.5641 87.8793C88.8649 87.166 89.0133 86.3976 88.9997 85.6236C88.9411 83.6878 88.4634 81.7877 87.5996 80.0543C86.9103 78.4781 85.9872 77.0149 84.8616 75.714C84.6905 75.5118 84.8616 75.1228 85.1416 75.2317C85.4217 75.3406 86.0284 75.5895 86.4639 75.7918C90.0667 77.2981 93.1722 79.789 95.4245 82.9789C96.6535 84.9288 97.567 87.0603 98.1314 89.2949C98.427 90.3372 98.6292 91.3951 98.9248 92.4063C99.2204 93.4175 99.4226 94.1486 99.5937 95.0509C99.7958 95.6642 99.8346 96.3195 99.7064 96.9523C99.5781 97.5852 99.2873 98.1737 98.8626 98.66C98.0808 99.272 97.1174 99.6059 96.1246 99.609C93.48 99.6559 90.8722 98.9837 88.5796 97.6644C86.8678 96.8888 85.454 95.5787 84.5505 93.9308C84.2784 95.302 84.2784 96.7133 84.5505 98.0844C84.8561 99.4753 85.4448 100.788 86.2798 101.942C87.1148 103.095 88.1783 104.065 89.4041 104.789C92.0423 106.375 95.147 107.002 98.1937 106.563C98.2503 106.561 98.3061 106.577 98.3538 106.607C98.4014 106.638 98.4387 106.682 98.4606 106.734C98.4825 106.787 98.488 106.844 98.4765 106.9C98.4649 106.955 98.4368 107.006 98.3959 107.045C96.4794 108.851 94.2632 110.309 91.8465 111.354C89.0131 112.574 85.9703 113.235 82.8859 113.299C85.6047 113.819 88.3913 113.882 91.1309 113.486C92.907 113.217 94.6456 112.742 96.3113 112.07C96.6971 112.036 97.0698 111.914 97.4002 111.712L98.007 111.479C98.0464 111.462 98.0797 111.434 98.102 111.398C98.1244 111.361 98.1346 111.319 98.1314 111.276C99.7168 110.519 101.159 109.493 102.394 108.243C103.757 106.79 104.9 105.144 105.785 103.358C106.159 102.627 106.579 101.911 106.921 101.18L107.279 100.356C106.997 100.912 106.652 101.433 106.252 101.911C104.81 103.434 102.908 104.44 100.838 104.774C99.8703 104.991 98.8661 104.991 97.8981 104.774C96.9283 104.533 96.0613 103.988 95.4245 103.218C95.2534 103 95.7046 102.689 95.9068 102.891C96.6592 103.641 97.6177 104.15 98.6603 104.354C100.502 104.6 102.372 104.198 103.95 103.218C104.82 102.754 105.583 102.113 106.19 101.336C106.729 100.554 107.197 99.7265 107.59 98.8623C107.59 98.7223 108.088 98.5511 108.119 98.8623C108.155 99.2219 108.129 99.5851 108.041 99.9357C107.802 100.816 107.451 101.663 106.999 102.456C106.579 103.249 106.159 104.012 105.707 104.852C103.764 108.529 100.528 111.355 96.6224 112.785C96.6224 112.785 96.6224 112.941 96.6224 113.034C96.3247 114.137 96.1114 115.26 95.9846 116.395C95.6576 118.771 95.8433 121.19 96.5291 123.488C97.4264 125.63 98.4659 127.708 99.6404 129.711C100.667 131.64 101.292 133.757 101.476 135.934C101.594 137.697 101.094 139.447 100.06 140.881C100.604 140.475 101.082 139.987 101.476 139.434C102.562 137.812 103.23 135.947 103.421 134.005C103.421 134.005 103.421 133.834 103.421 133.74C103.432 133.7 103.432 133.657 103.421 133.616C103.63 132.069 103.676 130.505 103.561 128.949C103.835 129.757 103.987 130.601 104.012 131.453C104.066 132.173 104.066 132.896 104.012 133.616C104.166 133.52 104.312 133.411 104.447 133.289C104.75 132.993 105.011 132.658 105.225 132.293C105.816 131.364 106.252 130.345 106.516 129.275C107.016 127.773 107.212 126.187 107.092 124.609C107.092 124.733 107.092 124.857 107.201 124.982C107.424 126.004 107.471 127.056 107.341 128.093C108.395 128.9 109.586 129.512 110.857 129.898C110.495 129.196 110.278 128.429 110.219 127.642C110.159 126.589 110.297 125.534 110.623 124.531C111.315 122.623 112.131 120.763 113.066 118.961C113.933 117.152 114.41 115.18 114.466 113.174C114.481 112.18 114.376 111.188 114.155 110.219C113.963 108.759 113.548 107.337 112.926 106.003C112.63 105.365 112.288 104.758 111.946 104.152C112.76 105.09 113.441 106.137 113.968 107.263L114.155 107.714C115.372 108.25 116.704 108.469 118.028 108.352C118.673 108.314 119.303 108.144 119.88 107.854L119.444 107.574Z" fill="#AD6330"/>
</g>
<g style="mix-blend-mode:multiply">
<path d="M47.5413 107.574C47.5413 106.936 47.7279 106.283 47.868 105.645C47.6963 106.276 47.5869 106.922 47.5413 107.574Z" fill="#AD6330"/>
</g>
<path d="M65.2603 151.615C64.6538 152.046 63.965 152.347 63.237 152.499C62.509 152.652 61.7573 152.653 61.0289 152.502C60.2637 152.386 59.5378 152.088 58.9132 151.631C58.508 151.313 58.1235 150.97 57.762 150.604C57.7303 150.561 57.7042 150.514 57.6843 150.464C56.7231 149.077 56.1192 147.474 55.9263 145.797C55.8797 145.383 55.8797 144.966 55.9263 144.552C55.9484 144.2 56.0272 143.853 56.1597 143.526C56.4553 142.903 57.4042 142.81 57.9954 142.763C58.736 142.755 59.4757 142.818 60.2044 142.95C60.8336 142.946 61.4623 142.983 62.0868 143.059C61.449 142.857 60.7956 142.639 60.1578 142.468L60.2667 142.234C60.4219 141.782 60.5467 141.319 60.64 140.85C60.64 140.85 60.5311 140.85 60.5156 140.85C60.3596 141.296 60.1778 141.732 59.9711 142.157L59.8311 142.39C59.321 142.272 58.7989 142.215 58.2754 142.219C57.4756 142.191 56.6886 142.426 56.0353 142.888C55.5451 143.409 55.2773 144.101 55.2885 144.817C55.1512 146.439 55.5034 148.064 56.2997 149.484C56.6549 149.954 57.0394 150.4 57.4509 150.822C58.028 151.455 58.6812 152.014 59.3955 152.486L59.9555 152.797C60.289 152.913 60.6328 152.996 60.9823 153.046C61.7718 153.207 62.5887 153.172 63.3617 152.944C64.1346 152.717 64.8399 152.303 65.4159 151.739C65.587 151.584 65.3692 151.506 65.2603 151.615Z" fill="#BA774B"/>
<path d="M84.8926 152.393C81.6723 151.102 78.6699 154.26 76.3831 156.033C74.8139 157.192 73.1112 158.158 71.3116 158.911C69.3781 159.743 67.3736 160.399 65.3223 160.871C63.2286 161.375 61.1027 161.734 58.9596 161.945C56.7481 162.209 54.5129 162.209 52.3014 161.945C50.4191 161.665 48.4122 161.167 46.6077 162.054C45.9379 162.35 45.3892 162.866 45.052 163.516C44.9989 163.636 44.9573 163.761 44.9276 163.889C44.9215 165.272 45.3396 166.624 46.1254 167.763C46.2965 168.074 46.4988 168.385 46.6855 168.696C47.5784 169.787 48.6267 170.741 49.7968 171.528C52.3299 173.221 55.2021 174.341 58.2129 174.81C60.3719 175.082 62.5566 175.082 64.7156 174.81C66.8165 174.604 68.8974 174.23 70.9383 173.69C72.8535 173.154 74.7091 172.424 76.4764 171.512C78.1552 170.604 79.7216 169.503 81.1434 168.23C84.0852 165.938 86.1769 162.73 87.0861 159.113C87.4905 156.811 87.4905 153.451 84.8926 152.393Z" fill="#BA774B"/>
<path d="M86.697 157.775C86.2793 161.111 84.7049 164.193 82.2479 166.487C80.9666 167.796 79.5538 168.969 78.032 169.987C76.4208 171.013 74.6986 171.854 72.8983 172.492C71.0991 173.128 69.2452 173.596 67.3601 173.892C65.307 174.264 63.224 174.446 61.1375 174.437C57.9945 174.369 54.9105 173.57 52.1302 172.103C49.9412 171.027 48.0541 169.423 46.6387 167.436C46.3257 167.023 46.0547 166.58 45.8298 166.114C45.4796 165.514 45.297 164.832 45.3008 164.138C45.3633 163.631 45.613 163.165 46.0009 162.831C47.5565 161.525 49.6567 161.929 51.4146 162.24C55.4738 162.83 59.6064 162.677 63.611 161.789C67.4707 161.09 71.1875 159.755 74.6095 157.838C76.0008 156.961 77.3219 155.978 78.5609 154.897C79.7325 153.772 81.182 152.977 82.7612 152.595C83.4289 152.474 84.1177 152.557 84.7369 152.835C85.3562 153.113 85.8768 153.571 86.2303 154.151C86.7452 155.285 86.9078 156.548 86.697 157.775Z" fill="#B7203D"/>
<path d="M76.9277 167.281C73.3696 167.135 69.8504 168.068 66.8315 169.956C64.9144 171.089 63.2599 172.616 61.9778 174.437C63.7824 174.379 65.5809 174.197 67.3604 173.892C69.2455 173.596 71.0993 173.128 72.8985 172.492C74.6989 171.854 76.4211 171.013 78.0322 169.987C78.9069 169.403 79.7434 168.764 80.5369 168.074C79.3825 167.623 78.1647 167.355 76.9277 167.281Z" fill="#F17163"/>
<path d="M50.7303 164.807C51.9963 165.84 53.464 166.598 55.0395 167.032C58.0009 167.791 61.0948 167.876 64.0935 167.28C67.026 166.786 69.878 165.896 72.5719 164.636C75.1471 163.523 77.3766 161.739 79.0279 159.471C80.2014 157.676 80.7484 155.543 80.5835 153.404C79.8573 153.872 79.1658 154.392 78.5145 154.96C77.2755 156.04 75.9544 157.024 74.5631 157.9C71.1411 159.817 67.4243 161.152 63.5646 161.851C59.56 162.739 55.4274 162.892 51.3682 162.302C50.3461 162.081 49.3024 161.977 48.2568 161.991C48.9161 163.063 49.7525 164.015 50.7303 164.807Z" fill="white"/>
</g>
<defs>
<clipPath id="clip0_49_1354">
<rect width="128" height="179.244" fill="white"/>
</clipPath>
</defs>
</svg>
