<svg width="52" height="52" viewBox="0 0 52 52" fill="none" xmlns="http://www.w3.org/2000/svg">
<rect x="0.5" y="0.5" width="51" height="51" rx="25.5" stroke="white"/>
<g clip-path="url(#clip0_55_2621)">
<path fill-rule="evenodd" clip-rule="evenodd" d="M23.7525 15.3697C22.3243 16.1137 21.1559 16.7432 21.1562 16.7688C21.1568 16.8349 24.5837 18.5704 24.7054 18.5662C24.7607 18.5644 25.1621 18.3796 25.5973 18.1557L26.3887 17.7486L27.253 18.1929L28.1173 18.6372L29.5327 18.0012C31.6654 17.0429 31.8869 16.9379 31.8522 16.9026C31.8061 16.8558 31.0411 16.4448 28.9657 15.3522C27.9627 14.8241 26.9892 14.3063 26.8023 14.2016C26.6155 14.0968 26.4371 14.0125 26.4059 14.0142C26.3747 14.0158 25.1806 14.6258 23.7525 15.3697ZM17.4886 18.6134L16.0019 19.3813V22.7515C16.0019 24.6052 16.0215 26.1218 16.0454 26.1218C16.0693 26.1218 16.8007 25.8047 17.6708 25.4172L19.2528 24.7126V21.1601L20.0259 21.5813C20.6216 21.9055 21.2177 22.2291 21.8141 22.5521L22.8292 23.1017L23.2809 22.8974C23.5642 22.7691 23.847 22.6396 24.1291 22.5088C24.3471 22.4072 24.8823 22.1662 25.3184 21.973C25.7545 21.7797 26.1582 21.5853 26.2154 21.541C26.2915 21.4822 25.3643 20.9698 22.786 19.6458C20.8426 18.6478 19.1901 17.8345 19.1139 17.8384C19.0377 17.8422 18.3063 18.191 17.4886 18.6134ZM32.1201 18.829C31.1076 19.2861 30.2784 19.6784 30.2775 19.7007C30.2766 19.7231 30.8285 20.0512 31.5039 20.4298C32.1793 20.8085 32.732 21.1386 32.732 21.1634C32.732 21.1882 32.1343 21.4778 31.4039 21.8071C30.6734 22.1363 28.827 22.9701 27.3007 23.6601L22.1865 25.9718C20.9 26.5533 19.7404 27.0775 19.6096 27.1367C16.982 28.3263 16.2597 28.6563 16.1605 28.713C16.0608 28.77 16.0382 29.1014 16.0204 30.7647L15.9993 32.7485L17.3287 33.4259L18.6582 34.1033L20.5016 33.2713C21.5156 32.8138 22.3451 32.4154 22.3451 32.3861C22.3451 32.3568 22.1577 32.2348 21.9288 32.1147C21.6998 31.9946 21.2271 31.7289 20.8782 31.524C20.5294 31.319 20.1815 31.131 20.1052 31.1061C20.0288 31.0812 19.9675 31.0378 19.9687 31.0094C19.97 30.9811 20.7818 30.5955 21.7726 30.1525C23.697 29.292 25.1697 28.6289 28.3314 27.1991C29.7452 26.5599 31.1592 25.921 32.5734 25.2826C33.8163 24.7216 35.2613 24.0664 35.7846 23.8266L36.7361 23.3906L36.7572 21.3843L36.7785 19.378L35.4301 18.6859C34.6884 18.3052 34.0545 17.9947 34.0213 17.9959C33.9881 17.9969 33.1326 18.3718 32.1201 18.829ZM36.3748 26.0673C36.1761 26.1643 35.7836 26.346 35.5027 26.4711C35.2217 26.5961 34.6884 26.8367 34.3178 27.0058L33.6438 27.3132L33.6284 29.0746C33.6199 30.0434 33.5843 30.8317 33.5491 30.8266C33.4694 30.8147 32.2062 30.1669 30.9365 29.4865C30.02 28.9955 29.9625 28.976 29.7471 29.0827C29.6226 29.1443 28.8785 29.4781 28.0936 29.8244C27.3086 30.1707 26.6408 30.4766 26.6093 30.5043C26.578 30.532 28.1579 31.3882 30.1202 32.4072L33.688 34.2599L35.2121 33.4715C36.0502 33.0379 36.763 32.6425 36.7958 32.5927C36.8697 32.4809 36.8633 25.8754 36.7894 25.8844C36.7601 25.8879 36.5735 25.9702 36.3748 26.0673ZM27.935 33.8204C27.6706 33.934 27.4063 34.0478 27.1421 34.1618C26.3442 34.507 26.5006 34.5185 25.5513 34.0459C24.9191 33.7312 24.6465 33.6341 24.5282 33.6812C24.4395 33.7166 23.6759 34.0601 22.8311 34.4447C21.9865 34.8292 21.266 35.1438 21.2302 35.1438C20.8758 35.1438 21.465 35.4958 23.7385 36.6427L26.4049 37.9876L27.5267 37.4337C28.1438 37.1291 29.3883 36.5191 30.2924 36.0781C31.1965 35.6371 31.925 35.2648 31.9113 35.2508C31.8976 35.2368 31.1401 34.8478 30.2279 34.3864L28.5693 33.5475L27.935 33.8204Z" fill="white"/>
</g>
<defs>
<clipPath id="clip0_55_2621">
<rect width="20.8704" height="24" fill="white" transform="translate(16 14)"/>
</clipPath>
</defs>
</svg>
