<svg width="52" height="52" viewBox="0 0 52 52" fill="none" xmlns="http://www.w3.org/2000/svg">
<rect x="0.5" y="0.5" width="51" height="51" rx="25.5" stroke="white"/>
<g clip-path="url(#clip0_55_2614)">
<path d="M18.9972 25.4133C18.9972 24.8593 19.4522 24.4043 20.0052 24.4043H21.7053C22.2593 24.4043 22.7335 24.8593 22.7335 25.4334V31.8453C22.9313 31.7857 23.1684 31.7262 23.4458 31.6667C23.8212 31.5678 24.0986 31.2318 24.0986 30.8353V22.8798C24.0986 22.3259 24.5537 21.8507 25.1268 21.8507H26.8269C27.3809 21.8507 27.8551 22.3057 27.8551 22.8798V30.2622C27.8551 30.2622 28.2708 30.0837 28.6855 29.9061C29.0023 29.7678 29.2001 29.4712 29.2001 29.1141V20.308C29.2001 19.7541 29.6551 19.2789 30.209 19.2789H31.9092C32.4631 19.2789 32.9181 19.7339 32.9181 20.308V27.5713C34.3812 26.5029 35.8845 25.2165 37.0711 23.6728C37.4273 23.2177 37.5261 22.6235 37.3284 22.0696C35.153 15.8161 28.3121 12.4907 22.0634 14.668C15.8148 16.8453 12.4932 23.692 14.6676 29.9464C14.9047 30.6587 15.2215 31.3317 15.5969 31.9845C15.8935 32.499 16.4474 32.7957 17.0407 32.7361C17.3575 32.716 17.753 32.6766 18.2465 32.6171C18.6813 32.5777 18.9981 32.2014 18.9981 31.7656L18.9972 25.4133Z" fill="white"/>
<path d="M18.9568 35.7045C24.3155 39.603 31.8102 38.4155 35.7049 33.053C37.1882 30.9947 37.9984 28.5208 37.9984 25.9883C37.9984 25.7109 37.9782 25.4344 37.959 25.157C33.5901 31.707 25.5021 34.7742 18.9568 35.7045Z" fill="white"/>
</g>
<defs>
<clipPath id="clip0_55_2614">
<rect width="24" height="24" fill="white" transform="translate(14 14)"/>
</clipPath>
</defs>
</svg>
