<svg width="52" height="52" viewBox="0 0 52 52" fill="none" xmlns="http://www.w3.org/2000/svg">
<rect x="0.5" y="0.5" width="51" height="51" rx="25.5" stroke="white"/>
<g clip-path="url(#clip0_55_2609)">
<path d="M26.0007 14.0001C19.3737 14.0001 14.0007 19.3731 14.0007 26.0001C14.0007 32.6271 19.3737 38.0001 26.0007 38.0001C32.6277 38.0001 38.0007 32.6271 38.0007 26.0001C38.0007 19.3731 32.6277 14.0001 26.0007 14.0001ZM31.8947 22.2211L29.9247 31.5011C29.7797 32.1591 29.3877 32.3191 28.8407 32.0091L25.8407 29.7991L24.3947 31.1931C24.3239 31.2848 24.233 31.359 24.129 31.4102C24.025 31.4613 23.9106 31.488 23.7947 31.4881H23.7897L24.0027 28.4341L29.5627 23.4121C29.8027 23.1991 29.5087 23.0781 29.1897 23.2911L22.3207 27.6171L19.3607 26.6931C18.7207 26.4901 18.7027 26.0531 19.4957 25.7391L31.0617 21.2811C31.5997 21.0851 32.0677 21.4091 31.8937 22.2221L31.8947 22.2211Z" fill="white"/>
</g>
<defs>
<clipPath id="clip0_55_2609">
<rect width="24" height="24" fill="white" transform="translate(14 14)"/>
</clipPath>
</defs>
</svg>
