<svg width="52" height="52" viewBox="0 0 52 52" fill="none" xmlns="http://www.w3.org/2000/svg">
<rect x="0.5" y="0.5" width="51" height="51" rx="25.5" stroke="white"/>
<path d="M40.5294 16.8422C39.4442 17.3245 38.2753 17.6493 37.0498 17.797C38.3024 17.0464 39.2596 15.8604 39.7149 14.4454C38.5435 15.1393 37.2467 15.6438 35.8662 15.9145C34.7638 14.7358 33.1864 14 31.4466 14C27.534 14 24.6598 17.6493 25.5432 21.4389C20.5109 21.1855 16.0446 18.7739 13.0572 15.1098C11.47 17.8314 12.2353 21.3946 14.9323 23.1984C13.9406 23.1664 13.008 22.8933 12.191 22.4405C12.1246 25.2458 14.1375 27.8714 17.0511 28.4571C16.1996 28.6884 15.2645 28.7425 14.3147 28.5604C15.0849 30.9671 17.3267 32.7167 19.9745 32.7659C17.4226 34.7641 14.2162 35.6573 11 35.2784C13.6823 36.9985 16.864 38 20.2845 38C31.5352 38 37.889 28.4989 37.5051 19.9772C38.6912 19.1258 39.7173 18.0578 40.5294 16.8422Z" fill="white"/>
</svg>
